<?xml version="1.0" encoding="UTF-8" standalone="no"?>
<svg
   xmlns:dc="http://purl.org/dc/elements/1.1/"
   xmlns:cc="http://creativecommons.org/ns#"
   xmlns:rdf="http://www.w3.org/1999/02/22-rdf-syntax-ns#"
   xmlns:svg="http://www.w3.org/2000/svg"
   xmlns="http://www.w3.org/2000/svg"
   viewBox="0 0 186.88 186.88"
   height="186.88"
   width="186.88"
   id="svg2"
   version="1.1">
  <metadata
     id="metadata8">
    <rdf:RDF>
      <cc:Work
         rdf:about="">
        <dc:format>image/svg+xml</dc:format>
        <dc:type
           rdf:resource="http://purl.org/dc/dcmitype/StillImage" />
        <dc:title></dc:title>
      </cc:Work>
    </rdf:RDF>
  </metadata>
  <defs
     id="defs6" />
  <path
     style="fill:#ff0000;stroke-width:0.31999999;opacity:1"
     d="m 63.990803,137.86761 c -0.294374,-0.64608 0.333741,-2.86016 4.117779,-14.51499 2.455824,-7.56394 4.560458,-14.33946 4.67696,-15.05672 0.332544,-2.04731 -0.350832,-4.0991 -1.962185,-5.89131 -0.787245,-0.8756 -6.520442,-5.284982 -12.919338,-9.936208 C 47.375699,84.815566 46.4,84.028158 46.4,83.184433 c 0,-0.583968 0.226896,-1.043347 0.618963,-1.253177 0.401133,-0.214679 5.891159,-0.332359 15.6,-0.334384 L 77.6,81.593672 79.222675,80.838078 c 0.892474,-0.415578 2.075731,-1.305229 2.629466,-1.977002 1.193997,-1.448524 1.472246,-2.20935 6.488349,-17.741152 2.155033,-6.672825 4.103296,-12.177571 4.388656,-12.4 0.597075,-0.465395 1.02288,-0.496672 1.618854,-0.118908 0.235402,0.149209 2.416438,6.387408 4.846749,13.862665 2.430311,7.475258 4.709091,14.154973 5.063951,14.843811 0.35487,0.688839 1.12637,1.714308 1.71445,2.278823 2.07146,1.988457 2.30538,2.013609 18.72812,2.013609 9.63198,0 15.07859,0.116554 15.47977,0.331258 0.38532,0.206221 0.61896,0.668899 0.61896,1.225744 0,0.808592 -1.15428,1.732333 -12.02024,9.619456 -7.92861,5.75503 -12.33452,9.158828 -12.94352,9.999518 -1.26778,1.75011 -1.70676,3.26212 -1.50685,5.19008 0.0932,0.89867 2.12719,7.64351 4.52002,14.98853 2.39282,7.34502 4.35059,13.68822 4.35059,14.096 0,0.87533 -0.55154,1.50942 -1.31292,1.50942 -0.29971,0 -5.87008,-3.86563 -12.3786,-8.59029 -6.50852,-4.72466 -12.429418,-8.82866 -13.157552,-9.12 -1.927597,-0.77127 -4.276342,-0.68122 -6.098118,0.23381 -0.836074,0.41993 -6.616986,4.47859 -12.846471,9.01924 -6.300829,4.59265 -11.712768,8.31595 -12.197257,8.39147 -0.6792,0.10586 -0.947386,-0.0321 -1.218279,-0.62663 z M 89.12,118.35192 c 1.558973,-0.74004 2.353984,-0.91146 4.227997,-0.91167 3.753209,-3.2e-4 4.835181,0.58372 15.696713,8.47429 5.40941,3.92976 9.86345,7.11846 9.89787,7.08599 0.0344,-0.0325 -1.60494,-5.09486 -3.64302,-11.24978 -3.68818,-11.13817 -3.70576,-11.20579 -3.74257,-14.39075 -0.0638,-5.51607 0.4446,-6.10286 13.51618,-15.601772 l 9.7955,-7.11823 -13.43434,-0.16 -13.43433,-0.16 -1.5865,-0.786499 c -2.12078,-1.051367 -3.88063,-2.871514 -4.91928,-5.087831 C 101.0244,77.443147 99.056,71.708251 97.12,65.701454 95.184,59.69466 93.570198,54.808308 93.533773,54.842897 93.497347,54.877486 91.86145,59.867985 89.898445,65.932891 87.93544,71.9978 85.975747,77.679998 85.543574,78.559998 84.49537,80.69436 82.507766,82.6778 80.511622,83.581403 78.912157,84.305441 78.61737,84.32315 65.553754,84.479998 l -13.326247,0.16 9.923194,7.2 c 5.457757,3.96 10.360006,7.69743 10.893891,8.305402 2.189123,2.4929 3.174403,6.16138 2.503254,9.32036 -0.202649,0.95383 -1.947817,6.58025 -3.87815,12.50314 -1.930333,5.9229 -3.509696,10.84998 -3.509696,10.94907 0,0.0991 4.284,-2.93266 9.52,-6.73724 5.236,-3.80457 10.384,-7.32754 11.44,-7.82881 z"
     id="path12" />
</svg>
