<?xml version="1.0" encoding="UTF-8" standalone="no"?>
<svg
   xmlns:dc="http://purl.org/dc/elements/1.1/"
   xmlns:cc="http://creativecommons.org/ns#"
   xmlns:rdf="http://www.w3.org/1999/02/22-rdf-syntax-ns#"
   xmlns:svg="http://www.w3.org/2000/svg"
   xmlns="http://www.w3.org/2000/svg"
   viewBox="0 0 186.88 186.88"
   height="186.88"
   width="186.88"
   id="svg2"
   version="1.1">
  <metadata
     id="metadata8">
    <rdf:RDF>
      <cc:Work
         rdf:about="">
        <dc:format>image/svg+xml</dc:format>
        <dc:type
           rdf:resource="http://purl.org/dc/dcmitype/StillImage" />
        <dc:title></dc:title>
      </cc:Work>
    </rdf:RDF>
  </metadata>
  <defs
     id="defs6" />
  <path
     style="fill:#ff0000;stroke-width:0.31999999;opacity:1"
     d="M 54.613334,119.78667 C 54.496,119.66933 54.4,107.89013 54.4,93.610668 c 0,-19.76652 0.09164,-26.054312 0.384,-26.346667 0.557622,-0.557622 77.07438,-0.557622 77.632,0 0.55617,0.556166 0.55617,51.795829 0,52.351999 -0.29442,0.29442 -9.38904,0.384 -38.986666,0.384 -21.231468,0 -38.698668,-0.096 -38.816,-0.21333 z M 129.92,94.400002 c 0,-12.496 -0.0766,-22.720001 -0.17023,-22.720001 -0.0936,0 -8.16641,6.552001 -17.93952,14.560001 C 102.03714,94.248002 93.846669,100.8 93.60921,100.8 93.056349,100.8 92.748086,100.55452 73.92,85.120418 65.208,77.97886 57.9,72.024721 57.68,71.888999 c -0.318563,-0.196528 -0.4,4.382733 -0.4,22.492117 V 117.12 h 36.32 36.32 z m -18.92711,-11.36 15.99555,-13.120001 -16.58974,-0.08284 c -9.12435,-0.04556 -24.169814,-0.04556 -33.434351,0 l -16.844615,0.08284 16.691741,13.683668 16.691741,13.683664 0.747059,-0.563664 c 0.410883,-0.310016 7.945055,-6.467667 16.742615,-13.683667 z"
     id="path12" />
</svg>
