<?xml version="1.0" encoding="UTF-8" standalone="no"?>
<svg
   xmlns:dc="http://purl.org/dc/elements/1.1/"
   xmlns:cc="http://creativecommons.org/ns#"
   xmlns:rdf="http://www.w3.org/1999/02/22-rdf-syntax-ns#"
   xmlns:svg="http://www.w3.org/2000/svg"
   xmlns="http://www.w3.org/2000/svg"
   viewBox="0 0 186.88 187.2"
   height="187.2"
   width="186.88"
   id="svg2"
   version="1.1">
  <metadata
     id="metadata8">
    <rdf:RDF>
      <cc:Work
         rdf:about="">
        <dc:format>image/svg+xml</dc:format>
        <dc:type
           rdf:resource="http://purl.org/dc/dcmitype/StillImage" />
        <dc:title></dc:title>
      </cc:Work>
    </rdf:RDF>
  </metadata>
  <defs
     id="defs6" />
  <path
     style="fill:#ff0000;stroke-width:0.31999999;opacity:1"
     d="m 59.44,144.93679 c -0.526925,-0.30918 -0.56,-2.07587 -0.56,-29.91269 0,-16.271258 0.036,-29.612554 0.08,-29.647329 0.044,-0.03477 3.031616,-0.142771 6.639149,-0.24 l 6.559149,-0.176774 0.220534,-1.769466 c 0.91008,-7.30215 6.571958,-14.179126 13.848304,-16.820297 5.728173,-2.079216 12.701578,-1.480435 18.092864,1.553565 0.968,0.544752 2.926,2.152748 4.35111,3.573328 2.0484,2.041888 2.86877,3.152572 3.91682,5.30287 1.35088,2.771635 2.29207,5.821482 2.29207,7.427232 v 0.892768 h 6.336 c 4.50133,0 6.44719,0.11119 6.72,0.384 0.48382,0.483821 0.55314,58.372903 0.0708,59.136003 -0.26608,0.42097 -4.46614,0.48894 -34.155101,0.55269 C 71.1412,145.24147 59.815693,145.15724 59.44,144.93679 Z M 125.44,115.2 V 87.999997 H 93.6 61.76 V 115.2 142.4 H 93.6 125.44 Z M 112,84.547229 c 0,-1.26879 -1.04436,-4.454182 -2.15046,-6.559094 -4.74825,-9.035927 -15.93427,-12.554026 -24.85833,-7.818157 -2.48176,1.317033 -5.796148,4.444665 -7.227543,6.820288 -1.303408,2.163209 -2.543603,5.604019 -2.555405,7.089731 l -0.0083,1.04 h 18.4 c 17.466738,0 18.399998,-0.02906 18.399998,-0.572768 z M 89.346394,59.973149 C 83.855747,57.237043 82.39889,49.901447 86.435411,45.315715 88.318803,43.176071 90.611926,42.168887 93.6,42.168887 c 1.955958,0 2.733779,0.159308 4.142195,0.84838 3.347435,1.637748 5.120415,4.583524 5.131185,8.525357 0.006,2.072151 -0.13308,2.695792 -0.95906,4.310867 -1.071,2.09418 -3.231418,3.976631 -5.262042,4.585021 -2.219696,0.665037 -5.450432,0.459248 -7.305884,-0.465363 z m 6.743884,-2.484234 c 2.431728,-1.018016 4.369092,-4.4328 3.908343,-6.888812 C 98.891206,44.697085 91.604093,43.062384 88.174208,47.947562 87.319203,49.165347 87.2,49.602467 87.2,51.519997 c 0,1.911411 0.120154,2.355462 0.96,3.547869 1.756989,2.49455 5.225379,3.553424 7.930278,2.421049 z"
     id="path12" />
</svg>
