<?xml version="1.0" encoding="UTF-8" standalone="no"?>
<svg
   xmlns:dc="http://purl.org/dc/elements/1.1/"
   xmlns:cc="http://creativecommons.org/ns#"
   xmlns:rdf="http://www.w3.org/1999/02/22-rdf-syntax-ns#"
   xmlns:svg="http://www.w3.org/2000/svg"
   xmlns="http://www.w3.org/2000/svg"
   viewBox="0 0 186.88 187.2"
   height="187.2"
   width="186.88"
   id="svg2"
   version="1.1">
  <metadata
     id="metadata8">
    <rdf:RDF>
      <cc:Work
         rdf:about="">
        <dc:format>image/svg+xml</dc:format>
        <dc:type
           rdf:resource="http://purl.org/dc/dcmitype/StillImage" />
        <dc:title></dc:title>
      </cc:Work>
    </rdf:RDF>
  </metadata>
  <defs
     id="defs6" />
  <path
     style="fill:#ff0000;stroke-width:0.31999999;opacity:1"
     d="M 66.057363,124.53387 C 64.41464,123.76308 62.888275,121.92756 62.162512,119.85014 61.64464,118.36778 61.6,116.28463 61.6,93.599997 c 0,-22.819219 0.04218,-24.760816 0.570762,-26.274973 0.765955,-2.194115 2.455795,-4.104752 4.229507,-4.782137 2.174141,-0.830311 5.532208,-0.521069 7.999731,0.736688 5.236704,2.66928 40.48,23.309555 41.55825,24.33864 1.66225,1.586444 2.7555,3.959731 2.7555,5.981782 0,2.022986 -1.09408,4.397021 -2.7555,5.979162 -1.06986,1.018811 -36.219024,21.609731 -41.55825,24.345471 -2.516656,1.28949 -6.303475,1.56603 -8.342637,0.60924 z m 5.822403,-2.74288 C 72.561894,121.54403 82.12,116.14499 93.12,109.79313 114.08982,97.684253 115.2636,96.892135 115.70232,94.553546 116.03398,92.785658 115.5538,91.522919 113.96353,89.981066 112.92131,88.97057 106.6258,85.168595 92.8,77.200007 81.976,70.961523 72.561894,65.655418 71.879766,65.408656 68.880314,64.323594 66.51248,65.151424 65.243683,67.72873 L 64.48,69.279997 v 24.32 V 117.92 l 0.763683,1.55127 c 1.268874,2.57746 3.637331,3.40538 6.636083,2.31972 z"
     id="path12" />
</svg>
