<?xml version="1.0" encoding="UTF-8" standalone="no"?>
<svg
   xmlns:dc="http://purl.org/dc/elements/1.1/"
   xmlns:cc="http://creativecommons.org/ns#"
   xmlns:rdf="http://www.w3.org/1999/02/22-rdf-syntax-ns#"
   xmlns:svg="http://www.w3.org/2000/svg"
   xmlns="http://www.w3.org/2000/svg"
   viewBox="0 0 186.88 186.88"
   height="186.88"
   width="186.88"
   id="svg2"
   version="1.1">
  <metadata
     id="metadata8">
    <rdf:RDF>
      <cc:Work
         rdf:about="">
        <dc:format>image/svg+xml</dc:format>
        <dc:type
           rdf:resource="http://purl.org/dc/dcmitype/StillImage" />
        <dc:title></dc:title>
      </cc:Work>
    </rdf:RDF>
  </metadata>
  <defs
     id="defs6" />
  <path
     style="fill:#ff0000;stroke-width:0.31999999;opacity:1"
     d="M 92.544,137.536 C 92.25352,137.24552 92.16,132.27841 92.16,117.14085 V 97.129699 L 77.991622,111.28485 C 68.652771,120.61498 63.60249,125.44 63.175622,125.44 62.297766,125.44 61.76,124.83878 61.76,123.85735 c 0,-0.64708 2.879494,-3.69471 13.998637,-14.816 L 89.757274,95.039997 h -19.86904 c -19.476071,0 -19.880522,-0.01267 -20.449412,-0.641299 -0.479542,-0.529891 -0.517145,-0.780055 -0.216454,-1.44 l 0.36391,-0.798701 H 70.873139 92.16 v -21.216 c 0,-16.074667 0.09306,-21.309057 0.384,-21.600001 0.531478,-0.531478 1.394256,-0.480029 1.993142,0.118858 0.446359,0.446358 0.502858,2.73823 0.502858,20.398637 v 19.89578 l 14.00135,-13.998637 c 11.12129,-11.119143 14.16892,-13.998637 14.816,-13.998637 0.98143,0 1.58265,0.537766 1.58265,1.415622 0,0.426868 -4.82423,5.476362 -14.15274,14.813588 l -14.152735,14.165964 20.312735,0.08241 20.31274,0.08241 0.10745,0.944221 c 0.20792,1.827017 0.84063,1.775779 -21.92861,1.775779 H 95.04 v 21.055999 c 0,15.95022 -0.09311,21.14911 -0.384,21.44 -0.2112,0.2112 -0.6864,0.384 -1.056,0.384 -0.3696,0 -0.8448,-0.1728 -1.056,-0.384 z"
     id="path12" />
</svg>
