<?xml version="1.0" encoding="UTF-8" standalone="no"?>
<svg
   xmlns:dc="http://purl.org/dc/elements/1.1/"
   xmlns:cc="http://creativecommons.org/ns#"
   xmlns:rdf="http://www.w3.org/1999/02/22-rdf-syntax-ns#"
   xmlns:svg="http://www.w3.org/2000/svg"
   xmlns="http://www.w3.org/2000/svg"
   xmlns:sodipodi="http://sodipodi.sourceforge.net/DTD/sodipodi-0.dtd"
   xmlns:inkscape="http://www.inkscape.org/namespaces/inkscape"
   viewBox="0 0 56.32 56.32"
   height="56.32"
   width="56.32"
   id="svg2"
   version="1.1"
   sodipodi:docname="symbol_icon_red.svg"
   inkscape:version="0.92.5 (2060ec1f9f, 2020-04-08)">
  <sodipodi:namedview
     pagecolor="#ffffff"
     bordercolor="#666666"
     borderopacity="1"
     objecttolerance="10"
     gridtolerance="10"
     guidetolerance="10"
     inkscape:pageopacity="0"
     inkscape:pageshadow="2"
     inkscape:window-width="640"
     inkscape:window-height="480"
     id="namedview6"
     showgrid="false"
     inkscape:zoom="4.1903409"
     inkscape:cx="28.16"
     inkscape:cy="28.16"
     inkscape:window-x="0"
     inkscape:window-y="24"
     inkscape:window-maximized="0"
     inkscape:current-layer="svg2" />
  <metadata
     id="metadata8">
    <rdf:RDF>
      <cc:Work
         rdf:about="">
        <dc:format>image/svg+xml</dc:format>
        <dc:type
           rdf:resource="http://purl.org/dc/dcmitype/StillImage" />
        <dc:title></dc:title>
      </cc:Work>
    </rdf:RDF>
  </metadata>
  <defs
     id="defs6" />
  <path
     style="fill:#ff0000;stroke-width:0.31999999;opacity:1"
     d="M 24.420423,42.895926 C 22.970087,42.011594 22.60415,41.156202 22.389836,38.149344 22.133743,34.556317 21.82118,34.259651 17.954181,33.939331 15.561516,33.741136 14.883541,33.564576 14.257778,32.976701 13.020916,31.81473 12.725417,30.67986 12.847583,27.560825 12.946761,25.028717 13.054212,24.588665 13.76,23.824119 14.905522,22.58323 16.323436,22.08 18.674271,22.08 c 3.069742,0 3.456496,-0.427408 3.722387,-4.113666 0.191362,-2.65301 0.300069,-3.027022 1.132273,-3.895656 1.181086,-1.232788 2.953706,-1.701398 5.700331,-1.50694 3.596383,0.254619 5.009336,1.865791 5.010242,5.713107 6.4e-4,3.205211 0.517254,3.70555 3.974579,3.850207 3.04848,0.127551 4.087575,0.645712 5.084963,2.535695 0.461463,0.87444 0.555485,1.64959 0.463015,3.817253 -0.176944,4.147862 -1.359443,5.44 -4.978419,5.44 -2.227076,0 -3.795008,0.479091 -4.230397,1.292621 C 34.38096,35.534538 34.24,36.757629 34.24,37.930602 c 0,2.541436 -0.655837,4.133145 -2.054387,4.98598 -1.433566,0.874186 -6.318932,0.861191 -7.76519,-0.02064 z m 6.916351,-2.459081 c 0.529476,-0.673117 0.663466,-1.302317 0.664423,-3.12 0.0022,-3.992759 1.311184,-5.289869 5.609344,-5.55802 C 40.978595,31.548699 41.6,31.008685 41.6,28.291902 41.6,25.100282 40.733792,24.320783 37.184944,24.318804 33.478483,24.316704 32,22.774736 32,18.91111 32,17.860915 31.868114,16.654777 31.70692,16.230805 31.293665,15.143862 29.785833,14.612069 27.625223,14.791244 25.187663,14.993386 24.64,15.66383 24.64,18.445729 c 0,2.337667 -0.503189,3.769067 -1.719164,4.890433 -0.71457,0.658972 -1.284058,0.808073 -3.771794,0.987514 C 15.444268,24.590902 15.04,24.965809 15.04,28.134289 c 0,3.036573 0.279872,3.315815 3.580532,3.572465 1.508902,0.117328 3.149392,0.447422 3.739091,0.752366 1.46499,0.757574 2.264463,2.649882 2.273349,5.38088 0.0098,2.999475 0.478943,3.44 3.663802,3.44 2.186525,0 2.429863,-0.06749 3.04,-0.843155 z"
     id="path12" />
</svg>
