<?xml version="1.0" encoding="UTF-8" standalone="no"?>
<!-- Created with Inkscape (http://www.inkscape.org/) -->

<svg
   xmlns:dc="http://purl.org/dc/elements/1.1/"
   xmlns:cc="http://creativecommons.org/ns#"
   xmlns:rdf="http://www.w3.org/1999/02/22-rdf-syntax-ns#"
   xmlns:svg="http://www.w3.org/2000/svg"
   xmlns="http://www.w3.org/2000/svg"
   xmlns:sodipodi="http://sodipodi.sourceforge.net/DTD/sodipodi-0.dtd"
   xmlns:inkscape="http://www.inkscape.org/namespaces/inkscape"
   version="1.1"
   id="svg2"
   width="30.999981"
   height="30.877605"
   viewBox="0 0 30.999981 30.877606"
   sodipodi:docname="symbol_mark_small.svg"
   inkscape:version="0.92.5 (2060ec1f9f, 2020-04-08)">
  <metadata
     id="metadata8">
    <rdf:RDF>
      <cc:Work
         rdf:about="">
        <dc:format>image/svg+xml</dc:format>
        <dc:type
           rdf:resource="http://purl.org/dc/dcmitype/StillImage" />
        <dc:title></dc:title>
      </cc:Work>
    </rdf:RDF>
  </metadata>
  <defs
     id="defs6" />
  <sodipodi:namedview
     pagecolor="#ffffff"
     bordercolor="#666666"
     borderopacity="1"
     objecttolerance="10"
     gridtolerance="10"
     guidetolerance="10"
     inkscape:pageopacity="0"
     inkscape:pageshadow="2"
     inkscape:window-width="640"
     inkscape:window-height="480"
     id="namedview4"
     showgrid="false"
     inkscape:zoom="4.1903409"
     inkscape:cx="15.634101"
     inkscape:cy="15.357606"
     inkscape:window-x="0"
     inkscape:window-y="24"
     inkscape:window-maximized="0"
     inkscape:current-layer="svg2"
     fit-margin-top="0"
     fit-margin-left="0"
     fit-margin-right="0"
     fit-margin-bottom="0" />
  <path
     inkscape:connector-curvature="0"
     id="path12"
     d="m 11.534845,30.231798 c -1.377919,-0.840096 -1.980744,-2.350412 -1.980744,-4.962556 0,-1.161226 -0.14096,-2.374704 -0.313245,-2.696621 C 8.805467,21.759091 7.237534,21.28 5.010458,21.28 c -3.618976,0 -4.80147504,-1.292138 -4.97841804,-5.44 -0.09247,-2.167663 0.0015,-2.942813 0.463014,-3.817253 C 1.492444,10.132764 2.531539,9.614603 5.580019,9.487052 9.037344,9.342395 9.553845,8.842056 9.554598,5.636845 9.555174,3.221595 10.178434,1.689096 11.577567,0.662747 12.336259,0.1062 12.951588,0 15.417567,0 20.098495,0 21.06636,0.875394 21.399643,5.410553 21.664587,9.015772 22.061384,9.44 25.16852,9.44 c 2.678378,0 4.592317,0.857809 5.315831,2.382506 0.656214,1.382868 0.695939,5.929226 0.06251,7.15414 -0.887204,1.715664 -1.596026,2.064996 -4.714132,2.32328 -3.858924,0.319655 -4.172467,0.617687 -4.428467,4.209418 -0.316903,4.446246 -1.335431,5.368262 -5.930161,5.368262 -2.325396,0 -3.083982,-0.124361 -3.939256,-0.645808 z M 18.514101,28 c 0.511775,-0.511776 0.641408,-1.072758 0.647028,-2.8 0.0089,-2.730998 0.808361,-4.623306 2.27335,-5.38088 0.589699,-0.304944 2.230188,-0.635038 3.739091,-0.752366 3.300659,-0.25665 3.580531,-0.535892 3.580531,-3.572465 0,-3.16848 -0.404269,-3.543387 -4.109043,-3.810613 -2.487735,-0.179441 -3.057223,-0.328542 -3.771792,-0.987514 -1.215975,-1.121366 -1.719165,-2.552766 -1.719165,-4.890433 0,-2.781899 -0.547663,-3.452343 -2.985223,-3.654485 -2.16061,-0.179175 -3.668442,0.352618 -4.081697,1.439561 -0.161194,0.423972 -0.29308,1.63011 -0.29308,2.680305 0,3.863626 -1.478484,5.405627 -5.184943,5.407694 -3.548848,0.002 -4.415057,0.781478 -4.415057,3.973098 0,2.716783 0.621405,3.256797 3.98946,3.466923 4.298158,0.268151 5.607246,1.565261 5.609344,5.55802 9.6e-4,1.817683 0.134946,2.446883 0.664422,3.12 0.610137,0.775664 0.853475,0.843155 3.04,0.843155 1.950107,0 2.491664,-0.11489 3.016774,-0.64 z"
     style="opacity:1;fill:#ff0000;stroke-width:0.31999999" />
</svg>
