<?xml version="1.0" encoding="UTF-8" standalone="no"?>
<svg
   xmlns:dc="http://purl.org/dc/elements/1.1/"
   xmlns:cc="http://creativecommons.org/ns#"
   xmlns:rdf="http://www.w3.org/1999/02/22-rdf-syntax-ns#"
   xmlns:svg="http://www.w3.org/2000/svg"
   xmlns="http://www.w3.org/2000/svg"
   viewBox="0 0 186.88 186.88"
   height="186.88"
   width="186.88"
   id="svg2"
   version="1.1">
  <metadata
     id="metadata8">
    <rdf:RDF>
      <cc:Work
         rdf:about="">
        <dc:format>image/svg+xml</dc:format>
        <dc:type
           rdf:resource="http://purl.org/dc/dcmitype/StillImage" />
        <dc:title></dc:title>
      </cc:Work>
    </rdf:RDF>
  </metadata>
  <defs
     id="defs6" />
  <path
     style="fill:#ff0000;stroke-width:0.31999999;opacity:1"
     d="m 86.24,134.27238 c -2.081075,-0.65816 -3.152224,-1.3354 -4.605114,-2.9116 -2.425968,-2.63186 -2.690502,-3.60739 -2.907158,-10.72078 -0.216106,-7.0953 -0.565485,-8.33801 -2.907869,-10.343 -1.882368,-1.61124 -3.060611,-1.86635 -9.739859,-2.1089 -7.143706,-0.25941 -8.435219,-0.64754 -10.891037,-3.27301 C 52.49177,102.03158 52.32,101.34418 52.32,93.433914 v -6.886087 l 1.066829,-2.16768 c 0.766073,-1.556579 1.516221,-2.522902 2.660905,-3.427725 2.392253,-1.890966 4.021319,-2.271664 10.832266,-2.531392 3.483789,-0.132851 6.314477,-0.390195 6.878582,-0.625347 1.788256,-0.745453 3.111671,-2.032003 3.95152,-3.841456 0.778404,-1.677056 0.844288,-2.19272 1.008932,-7.896371 0.175852,-6.092054 0.177878,-6.105667 1.224486,-8.231632 1.213322,-2.464605 2.997437,-4.099203 5.55872,-5.092874 1.350173,-0.523811 2.686864,-0.691152 6.528931,-0.817356 7.694407,-0.252752 10.826669,0.598556 13.603259,3.6972 2.25561,2.517232 2.57286,3.74823 2.8212,10.946806 0.23542,6.824144 0.48531,7.797782 2.47506,9.643469 1.94251,1.801856 2.69851,1.98479 9.22931,2.233248 3.344,0.127219 6.5161,0.367801 7.04911,0.534627 3.10733,0.97255 6.04333,3.636509 7.04313,6.390512 0.72932,2.008957 1.03852,11.066762 0.47548,13.928666 -0.7257,3.688678 -2.66771,6.337738 -5.71608,7.797178 -1.71506,0.82111 -2.1443,0.87842 -8.05164,1.07515 -6.85132,0.22817 -8.17652,0.54862 -10.03217,2.42594 -2.00429,2.0277 -2.24002,2.93826 -2.47779,9.57121 -0.23852,6.65419 -0.44508,7.69325 -1.97866,9.95369 -1.35498,1.99718 -2.88249,3.18183 -5.11407,3.96617 -1.583508,0.55656 -2.60579,0.63735 -7.829316,0.61873 -3.898983,-0.0139 -6.457319,-0.16351 -7.287994,-0.42621 z m 13.93779,-2.91866 c 2.08777,-0.7366 3.35898,-1.87717 4.35017,-3.9031 0.86332,-1.76457 0.90403,-2.06769 1.06484,-7.92948 l 0.1672,-6.09478 1.05593,-2.14481 c 1.22129,-2.48068 2.99905,-4.11216 5.56631,-5.1083 1.41221,-0.54795 2.72195,-0.69193 7.78712,-0.856 5.68568,-0.18417 6.1948,-0.25117 7.68,-1.01066 1.97488,-1.00989 3.48146,-3.13387 4.00221,-5.642328 0.22686,-1.092752 0.32832,-3.657929 0.25619,-6.476809 -0.13721,-5.362355 -0.62738,-6.869767 -2.85347,-8.775219 -1.85683,-1.589383 -3.2973,-1.898634 -9.89429,-2.124189 -6.88639,-0.235447 -8.16744,-0.613671 -10.65449,-3.145687 C 106.14767,75.538275 105.82722,74.406339 105.60773,67.2 105.39125,60.092483 105.04374,58.86327 102.67847,56.838691 100.78629,55.219056 99.159386,54.88 93.28,54.88 c -5.798915,0 -6.913261,0.253514 -8.864998,2.016794 -2.372973,2.143836 -2.598903,2.943443 -2.820752,9.983206 -0.187383,5.94601 -0.239149,6.334189 -1.098788,8.239194 -1.037827,2.299884 -3.000835,4.282982 -5.239248,5.292873 -1.288556,0.581351 -2.362262,0.704355 -7.736214,0.886285 -6.878509,0.232864 -7.957232,0.48624 -9.868042,2.317866 -2.175024,2.084892 -2.434,2.989737 -2.55582,8.929878 -0.125828,6.135613 0.257324,8.135264 1.922089,10.031334 1.945597,2.21591 2.899603,2.48413 9.701773,2.72762 7.679699,0.27491 8.808342,0.59955 11.545155,3.32083 2.750109,2.7345 3.033184,3.69299 3.311946,11.21412 0.243677,6.57452 0.521865,7.78201 2.199875,9.54857 1.967322,2.07114 3.245853,2.39054 9.70279,2.42393 3.998634,0.0207 5.662052,-0.0933 6.698024,-0.45878 z"
     id="path12" />
</svg>
