
<svg xmlns="http://www.w3.org/2000/svg" viewBox="1634 512 16 16">
  <g id="shoppingBlack" transform="translate(1442 432)">
    <path id="Fill1" fill="white" d="M194.655,84.677h8.853v9.689l1.292,1.279h-8.886l-1.259-1.279Z"/>
    <path id="Fill2" fill="white" d="M203.609,84.677h3.01v9.683L205.177,95.7l-1.569-1.569Z"/>
    <path fill="red" d="M14.063-13V-3a1.905,1.905,0,0,1-.16.777,2.061,2.061,0,0,1-.43.633,2.048,2.048,0,0,1-.637.43,1.914,1.914,0,0,1-.773.16h-9a1.905,1.905,0,0,1-.777-.16,2.061,2.061,0,0,1-.633-.43,2.061,2.061,0,0,1-.43-.633A1.905,1.905,0,0,1,1.063-3V-13h2v-1A2.882,2.882,0,0,1,3.3-15.164a3.065,3.065,0,0,1,.645-.953,3.065,3.065,0,0,1,.953-.645A2.882,2.882,0,0,1,6.063-17a2.937,2.937,0,0,1,1.508.406A2.909,2.909,0,0,1,9.063-17a2.882,2.882,0,0,1,1.164.238,3.065,3.065,0,0,1,.953.645,3.065,3.065,0,0,1,.645.953A2.882,2.882,0,0,1,12.063-14v1Zm-3-1a1.914,1.914,0,0,0-.16-.773,2.048,2.048,0,0,0-.43-.637,2.048,2.048,0,0,0-.637-.43A1.914,1.914,0,0,0,9.063-16a1.876,1.876,0,0,0-.664.117,2.918,2.918,0,0,1,.422.688,2.825,2.825,0,0,1,.191.68,4.888,4.888,0,0,1,.051.715v.8h2Zm-7,1h4v-1a1.914,1.914,0,0,0-.16-.773,2.048,2.048,0,0,0-.43-.637,2.048,2.048,0,0,0-.637-.43A1.914,1.914,0,0,0,6.063-16a1.905,1.905,0,0,0-.777.16,2.061,2.061,0,0,0-.633.43,2.048,2.048,0,0,0-.43.637,1.914,1.914,0,0,0-.16.773ZM10.328-2a2,2,0,0,1-.266-1v-9h-8v9a.969.969,0,0,0,.078.391,1.016,1.016,0,0,0,.215.316,1.016,1.016,0,0,0,.316.215A.969.969,0,0,0,3.063-2Zm2.734-10h-2v9a.969.969,0,0,0,.078.391,1.016,1.016,0,0,0,.215.316,1.016,1.016,0,0,0,.316.215A.969.969,0,0,0,12.063-2a.969.969,0,0,0,.391-.078,1.016,1.016,0,0,0,.316-.215,1.016,1.016,0,0,0,.215-.316A.969.969,0,0,0,13.063-3Z" transform="translate(192.938 97)"/>
  </g>
</svg>