<?xml version="1.0" encoding="UTF-8" standalone="no"?>
<!-- Created with Inkscape (http://www.inkscape.org/) -->

<svg
   xmlns:dc="http://purl.org/dc/elements/1.1/"
   xmlns:cc="http://creativecommons.org/ns#"
   xmlns:rdf="http://www.w3.org/1999/02/22-rdf-syntax-ns#"
   xmlns:svg="http://www.w3.org/2000/svg"
   xmlns="http://www.w3.org/2000/svg"
   xmlns:sodipodi="http://sodipodi.sourceforge.net/DTD/sodipodi-0.dtd"
   xmlns:inkscape="http://www.inkscape.org/namespaces/inkscape"
   version="1.1"
   id="svg2"
   width="106.88"
   height="106.88"
   viewBox="0 0 106.88 106.88"
   sodipodi:docname="symbol_mark.svg"
   inkscape:version="0.92.5 (2060ec1f9f, 2020-04-08)">
  <metadata
     id="metadata8">
    <rdf:RDF>
      <cc:Work
         rdf:about="">
        <dc:format>image/svg+xml</dc:format>
        <dc:type
           rdf:resource="http://purl.org/dc/dcmitype/StillImage" />
        <dc:title></dc:title>
      </cc:Work>
    </rdf:RDF>
  </metadata>
  <defs
     id="defs6" />
  <sodipodi:namedview
     pagecolor="#ffffff"
     bordercolor="#666666"
     borderopacity="1"
     objecttolerance="10"
     gridtolerance="10"
     guidetolerance="10"
     inkscape:pageopacity="0"
     inkscape:pageshadow="2"
     inkscape:window-width="640"
     inkscape:window-height="480"
     id="namedview4"
     showgrid="false"
     inkscape:zoom="2.2080839"
     inkscape:cx="53.439999"
     inkscape:cy="53.439999"
     inkscape:window-x="0"
     inkscape:window-y="24"
     inkscape:window-maximized="0"
     inkscape:current-layer="svg2" />
  <path
     inkscape:connector-curvature="0"
     id="path12"
     d="M 46.136413,102.6976 C 42.943206,102.0692 39.490989,99.790297 37.932202,97.281778 36.224112,94.532988 36.064547,93.684406 35.825827,86.079996 35.570278,77.939494 35.317946,76.791174 33.274598,74.469807 32.482822,73.570303 31.310359,72.73702 30.01863,72.155753 28.056054,71.272614 27.800068,71.241458 20.8,71.033798 14.430166,70.844834 13.38797,70.738031 11.761069,70.10751 9.2551363,69.13631 6.6737027,66.722847 5.4583917,64.21494 4.0570829,61.323209 3.7401171,58.783046 3.9205997,51.891087 4.0515334,46.891218 4.1864531,45.616534 4.7500858,44.05431 6.3943254,39.496959 9.9161523,36.693574 15.041927,35.861974 c 1.14294,-0.185428 4.391937,-0.338231 7.219993,-0.339562 5.908129,-0.0029 7.569563,-0.354256 9.828778,-2.079293 1.031881,-0.787901 1.779731,-1.753906 2.51662,-3.250737 l 1.048448,-2.129705 0.198352,-7.231341 c 0.171428,-6.249886 0.287892,-7.458184 0.8581,-8.902729 C 38.039261,8.5667277 40.504496,6.0600906 43.79031,4.7316479 45.508147,4.0371327 46.006051,4.0000338 53.6,4.0007263 c 7.606563,7.04e-4 8.089728,0.036949 9.824522,0.7372006 2.152515,0.8688661 4.740835,3.0912078 5.895977,5.0623099 1.556733,2.6563602 1.789831,3.9936762 2.000957,11.4797592 0.193594,6.864474 0.220803,7.085331 1.091373,8.858113 1.015363,2.067647 2.573462,3.574089 4.690912,4.535401 1.270486,0.576793 2.354349,0.688774 8.496259,0.877795 7.473955,0.230013 8.858954,0.472297 11.47976,2.008192 1.970589,1.154841 4.19314,3.74303 5.06304,5.895977 0.70263,1.738957 0.7372,2.207207 0.7372,9.984522 v 8.16 l -0.99284,2.095158 c -1.20476,2.542336 -2.622594,4.212493 -4.520123,5.324519 -2.790903,1.635577 -3.682,1.798246 -11.127037,2.031238 -8.18121,0.256029 -9.633226,0.615043 -11.915059,2.946026 -2.487651,2.541232 -2.755914,3.585101 -2.98185,11.603059 -0.168454,5.978128 -0.297763,7.313571 -0.857277,8.853712 -1.600624,4.405955 -4.546419,7.025692 -9.109948,8.101572 -2.240708,0.52827 -12.778199,0.62668 -15.239453,0.14232 z m 13.880893,-3.277124 c 3.679536,-0.771466 5.936073,-2.652666 7.246998,-6.041574 0.556301,-1.438109 0.69376,-2.7796 0.895456,-8.738906 0.13105,-3.872 0.394144,-7.520134 0.584653,-8.106966 0.938675,-2.89144 3.50312,-5.844237 6.236771,-7.181248 2.404634,-1.17609 4.78871,-1.511786 10.736595,-1.511786 6.170448,0 8.095959,-0.404266 10.469315,-2.198048 1.051223,-0.794515 1.87713,-1.797162 2.527223,-3.068032 L 99.68,60.686098 v -7.223052 c 0,-6.861354 -0.03687,-7.303172 -0.73639,-8.82305 C 98.007658,42.606402 96.58945,41.127071 94.56,40.067462 93.026701,39.266898 92.666515,39.222636 85.92,39.005686 77.06144,38.720815 75.131766,38.22511 72.13759,35.465177 69.016835,32.588566 68.162397,29.928421 68.153661,23.061916 68.143274,14.898908 67.390723,11.917607 64.75681,9.6050003 62.203942,7.3635552 61.445197,7.1999968 53.6,7.1999968 c -6.901578,0 -7.074643,0.016253 -8.801949,0.8265626 -2.241699,1.0516249 -3.728835,2.5423726 -4.759923,4.7714906 -0.771978,1.668951 -0.825622,2.141961 -1.016365,8.961946 -0.175238,6.265696 -0.288953,7.423301 -0.876329,8.920816 -1.2441,3.171821 -3.063024,5.202189 -5.987232,6.68321 C 29.841221,38.5375 28.082391,38.80086 21.12,39.016831 c -7.828985,0.242855 -8.712468,0.471751 -11.10577,2.877325 -2.0686399,2.079251 -2.6823343,4.090349 -2.8885366,9.46584 -0.3636467,9.479917 1.1555053,13.451878 5.9780486,15.63015 1.274492,0.575671 2.354943,0.68368 8.656258,0.865357 6.385891,0.184115 7.409219,0.288471 9.05034,0.922903 3.457641,1.336668 5.946524,3.823875 7.296166,7.291251 0.636102,1.634211 0.746144,2.672646 0.942092,8.890339 0.25146,7.979014 0.508644,9.123354 2.57904,11.47545 1.424583,1.618409 3.403581,2.695312 5.646442,3.072592 2.46191,0.414128 10.61768,0.358086 12.743226,-0.08756 z"
     style="fill:#ff0000;stroke-width:0.31999999;opacity:1" />
</svg>
