<?xml version="1.0" encoding="UTF-8" standalone="no"?>
<svg
   xmlns:dc="http://purl.org/dc/elements/1.1/"
   xmlns:cc="http://creativecommons.org/ns#"
   xmlns:rdf="http://www.w3.org/1999/02/22-rdf-syntax-ns#"
   xmlns:svg="http://www.w3.org/2000/svg"
   xmlns="http://www.w3.org/2000/svg"
   viewBox="0 0 666.88 126.4"
   height="126.4"
   width="666.88"
   id="svg2"
   version="1.1">
  <metadata
     id="metadata8">
    <rdf:RDF>
      <cc:Work
         rdf:about="">
        <dc:format>image/svg+xml</dc:format>
        <dc:type
           rdf:resource="http://purl.org/dc/dcmitype/StillImage" />
        <dc:title></dc:title>
      </cc:Work>
    </rdf:RDF>
  </metadata>
  <defs
     id="defs6" />
  <path
     id="path12"
     d="m 206.15535,126.06831 c -1.14297,-0.45919 -1.41064,-1.72037 -1.29856,-6.11839 0.0568,-2.22755 -0.0149,-3.97681 -0.15922,-3.88725 -0.14434,0.0896 -1.28694,0.93354 -2.53911,1.87553 -2.73687,2.05892 -7.73717,4.56851 -11.37498,5.70897 -3.20036,1.00333 -3.27663,1.00631 -4.34032,0.1696 -0.64467,-0.50709 -0.84316,-0.94741 -0.84316,-1.8704 0,-1.61567 0.48619,-1.96658 4.42771,-3.19568 3.28584,-1.02464 9.91831,-4.15449 10.6358,-5.01902 0.32082,-0.38656 -0.63848,-0.45167 -6.65473,-0.45167 -6.40375,0 -7.07674,-0.0521 -7.55918,-0.5852 -0.66999,-0.74032 -0.68456,-2.41413 -0.0268,-3.07194 0.43314,-0.43314 1.742,-0.50286 9.44,-0.50286 H 204.8 v -0.96 -0.96 h -6.6704 c -6.05579,0 -6.71921,-0.0539 -7.2,-0.5852 -0.66999,-0.74032 -0.68456,-2.41413 -0.0268,-3.07194 0.42511,-0.42511 1.53836,-0.50286 7.2,-0.50286 H 204.8 v -0.96 -0.96 h -8.096 c -5.87022,0 -8.20157,-0.10557 -8.48,-0.384 -0.55117,-0.55117 -0.47385,-2.680433 0.11886,-3.27314 0.41368,-0.413687 1.37835,-0.502858 5.44,-0.502858 2.71542,0 4.9312,-0.108 4.92395,-0.24 -0.007,-0.132 -0.33125,-0.888 -0.72,-1.68 l -0.70681,-1.44 -5.37241,-0.16 c -5.94539,-0.177066 -5.97393,-0.188042 -5.98269,-2.301856 -0.007,-1.766294 0.7918,-2.178144 4.2263,-2.178144 1.54484,0 2.8088,-0.08064 2.8088,-0.179197 0,-0.09856 -0.504,-0.839267 -1.12,-1.646016 -1.34018,-1.755184 -1.41285,-2.697977 -0.27684,-3.591561 1.86144,-1.464212 3.43758,-0.53994 5.71242,3.349859 1.15678,1.978003 1.26202,2.066915 2.4466,2.066915 H 200.96 v -3.150403 c 0,-3.596605 0.33428,-4.209597 2.2956,-4.209597 1.83797,0 2.1844,0.676422 2.1844,4.265197 v 3.094803 h 1.76 1.76 v -3.181856 c 0,-2.92528 0.0573,-3.222022 0.7112,-3.68 0.39116,-0.273978 1.07912,-0.498144 1.5288,-0.498144 0.44968,0 1.13764,0.224166 1.5288,0.498144 0.65385,0.457978 0.7112,0.75472 0.7112,3.68 v 3.181856 h 1.57064 1.57064 l 1.43684,-2.32 c 0.79026,-1.276 1.73433,-2.644 2.09792,-3.04 1.33551,-1.454515 3.88562,-0.50871 3.88259,1.44 -6.4e-4,0.484 -0.43168,1.528 -0.95761,2.32 l -0.95625,1.44 3.02337,0.09142 c 2.85248,0.08625 3.06176,0.14022 3.70262,0.954947 0.69966,0.889465 0.68437,2.385286 -0.0317,3.103635 -0.18649,0.187082 -2.68178,0.399293 -5.76168,0.49 l -5.43272,0.16 -0.77759,1.68 -0.7776,1.68 h 5.10527 c 4.67862,0 5.15877,0.05349 5.74528,0.64 0.7672,0.7672 0.82132,1.83873 0.14186,2.808796 -0.49342,0.70444 -0.57852,0.7112 -8.96,0.7112 h -8.46187 v 0.96 0.96 h 7.01714 c 7.79122,0 8.02286,0.0593 8.02286,2.05326 0,2.01362 -0.35825,2.10674 -8.1052,2.10674 H 209.6 v 0.96 0.96 h 9.25714 c 10.25841,0 10.26286,9.6e-4 10.26286,2.05326 0,2.0211 -0.33485,2.10591 -8.3452,2.11386 l -7.1748,0.007 0.8,0.636 c 1.4803,1.17685 5.76254,3.15854 9.28829,4.29834 1.92494,0.62228 3.69912,1.13143 3.94264,1.13143 0.24352,0 0.82218,0.29845 1.28591,0.66323 1.13244,0.89077 1.15884,2.57018 0.0577,3.67131 -1.02793,1.02794 -1.54261,0.99656 -5.52801,-0.33704 -4.02124,-1.34559 -8.27508,-3.49226 -11.48767,-5.79719 l -2.35886,-1.6924 -0.005,4.54605 c -0.003,2.50033 -0.11069,4.70449 -0.24,4.89815 -0.30913,0.46296 -1.5218,1.09326 -2.05406,1.06762 -0.23157,-0.0112 -0.74713,-0.15129 -1.14569,-0.31141 z m 4.94922,-29.71441 c 0.20818,-0.333357 0.59547,-1.125357 0.86064,-1.76 l 0.48213,-1.153898 h -4.94367 c -2.71902,0 -4.94367,0.125696 -4.94367,0.279322 0,0.153628 0.29474,0.945628 0.65497,1.76 l 0.65498,1.480678 h 3.42805 c 3.01758,0 3.47337,-0.07257 3.80657,-0.606102 z m 246.34365,28.96343 -0.83878,-0.83878 0.0953,-5.11972 c 0.0524,-2.81584 0.0157,-5.11952 -0.082,-5.11927 -0.0975,2.4e-4 -0.67347,0.51721 -1.28,1.14881 -1.9088,1.98771 -5.82051,4.74808 -9.12092,6.43634 -5.85552,2.99525 -7.71687,3.24821 -8.70189,1.1826 -0.38691,-0.81138 -0.44275,-1.31697 -0.21645,-1.96043 0.34477,-0.98033 0.74755,-1.21666 4.77648,-2.80237 3.3959,-1.33657 7.24374,-3.59508 9.36355,-5.49599 l 1.51645,-1.35984 -4.27165,-0.0143 c -7.10445,-0.0238 -7.20957,-0.14306 -7.34941,-8.33434 -0.11267,-6.598766 0.13527,-7.96916 1.64436,-9.089432 0.83209,-0.617683 1.40617,-0.679504 7.28,-0.783952 l 6.3767,-0.113388 v -1.086612 -1.086611 h -8.94186 c -8.8775,0 -8.94544,-0.0051 -9.44,-0.711203 -0.68646,-0.980054 -0.62374,-2.363194 0.14186,-3.128797 0.60896,-0.608969 1.06666,-0.64 9.44,-0.64 h 8.8 v -1.614544 c 0,-1.958307 0.98061,-3.185456 2.54544,-3.185456 1.53936,0 2.25456,0.964365 2.25456,3.04 v 1.76 h 9.44 c 9.01334,0 9.46893,0.02893 10.08,0.64 0.7656,0.765603 0.82832,2.148743 0.14186,3.128797 -0.49591,0.708013 -0.54116,0.711203 -10.08,0.711203 H 461.44 v 1.088173 1.08817 l 6.8,0.120489 c 7.41869,0.131456 8.376,0.342477 9.1377,2.014227 0.25616,0.562189 0.3823,2.975213 0.3823,7.312796 0,8.84652 0.19658,8.615 -7.52,8.85614 l -5.12,0.16 2.24,1.69304 c 2.56227,1.9366 7.4585,4.4233 11.2,5.68822 2.83216,0.9575 3.68,1.66449 3.68,3.06874 0,1.17675 -1.2735,2.51 -2.3975,2.51 -0.93175,0 -5.55456,-1.72079 -8.18432,-3.04651 -2.92576,-1.47494 -5.83354,-3.48526 -8.07786,-5.5847 L 461.44,113.84662 v 5.41553 c 0,6.04475 -0.10458,6.39928 -1.97754,6.70321 -0.98467,0.1598 -1.31158,0.0546 -2.01424,-0.64803 z M 456.64,105.75207 v -1.44792 l -5.2,0.0879 -5.2,0.0879 -0.0977,1.17312 c -0.12317,1.47877 -0.184,1.46287 5.77773,1.50976 l 4.72,0.0371 z m 15.81382,1.25369 c 0.34164,-0.13109 0.50618,-0.59922 0.50618,-1.44 V 104.32 h -5.76 -5.76 v 1.44 1.44 h 5.25382 c 2.8896,0 5.4816,-0.0874 5.76,-0.19424 z M 456.64,98.872076 v -1.287927 l -5.2,0.08793 -5.2,0.08793 -0.0993,1.2 -0.0993,1.200001 h 5.29929 5.29933 z m 16.25933,0.08793 -0.0993,-1.2 -5.68,-0.08738 -5.68,-0.08739 V 98.87262 100.16 h 5.77933 5.77929 z M 292.89434,125.40571 c -1.77012,-0.51184 -2.54161,-2.32871 -1.55606,-3.66455 0.40673,-0.5513 0.86561,-0.62116 4.08,-0.62116 H 299.04 l 0.0993,-1.2 0.0993,-1.2 h -7.67646 c -8.53248,0 -8.68217,-0.0359 -8.68217,-2.08 0,-2.04359 0.15165,-2.08 8.66286,-2.08 H 299.2 v -0.96 -0.96 h -9.12 c -8.69333,0 -9.14994,-0.0299 -9.76,-0.64 -0.35556,-0.35556 -0.64,-1.06667 -0.64,-1.6 0,-0.53333 0.28444,-1.24444 0.64,-1.6 0.61006,-0.61006 1.06667,-0.64 9.76,-0.64 8.90667,0 9.12,-0.015 9.12,-0.64 0,-0.62085 -0.21333,-0.64 -7.1288,-0.64 -8.16171,0 -8.5512,-0.0999 -8.5512,-2.19414 0,-0.65883 0.1728,-1.37066 0.384,-1.58186 0.27669,-0.27669 2.46756,-0.384 7.84,-0.384 h 7.456 v -0.8 -0.8 h -5.93589 c -8.193,0 -8.46411,-0.164 -8.46411,-5.119994 0,-4.956003 0.27111,-5.12 8.46411,-5.12 5.72256,0 5.93589,-0.02301 5.93589,-0.64 0,-0.624998 -0.21333,-0.64 -9.10186,-0.64 -9.04283,0 -9.10508,-0.0046 -9.6,-0.711203 -0.6686,-0.954573 -0.62935,-2.270858 0.0871,-2.9192 0.51538,-0.466413 1.66069,-0.529597 9.6,-0.529597 H 299.2 v -1.28 c 0,-1.611642 0.86643,-2.56 2.33884,-2.56 1.53195,0 2.09614,0.572851 2.20615,2.24 l 0.095,1.44 9.53202,0.16 c 10.41432,0.17481 10.13819,0.118157 10.13819,2.08 0,1.961843 0.27613,1.90519 -10.13819,2.08 -8.18846,0.137446 -9.53202,0.227658 -9.53202,0.64 0,0.406192 1.02538,0.504602 6.6684,0.64 l 6.6684,0.16 0.7716,0.897843 c 0.70292,0.817923 0.7716,1.17952 0.7716,4.062157 0,2.882637 -0.0687,3.244234 -0.7716,4.062154 l -0.7716,0.89784 -6.6684,0.16 c -6.40173,0.1536 -6.6684,0.18559 -6.6684,0.8 0,0.61516 0.26702,0.64625 6.88,0.80107 3.784,0.0886 7.12088,0.27972 7.41528,0.42475 0.78751,0.38793 1.54472,2.2029 1.54472,3.70254 V 108.16 h 1.45456 c 1.11766,0 1.63645,0.18191 2.24,0.78546 0.8689,0.8689 0.96848,1.46887 0.41754,2.51558 -0.52925,1.00547 -0.88935,1.16857 -2.5921,1.17406 l -1.52,0.005 v 1.57917 c 0,2.03763 -0.40036,3.04885 -1.49029,3.76409 -0.7536,0.49455 -1.83875,0.59954 -7.61428,0.73674 l -6.73543,0.16 -0.16427,2.24 c -0.20261,2.76286 -0.58049,3.46037 -2.23287,4.12152 -1.44587,0.57852 -6.76245,0.68063 -8.54852,0.16419 z M 314.88,113.6 v -0.96 h -5.6 -5.6 v 0.74667 c 0,0.41066 0.096,0.84266 0.21333,0.96 0.11734,0.11733 2.63734,0.21333 5.6,0.21333 H 314.88 Z m 0,-6.08 c 0,-0.61562 -0.21333,-0.64 -5.6,-0.64 -5.38667,0 -5.6,0.0244 -5.6,0.64 0,0.61562 0.21333,0.64 5.6,0.64 5.38667,0 5.6,-0.0244 5.6,-0.64 z M 299.2,95.840002 v -1.12 h -4.45383 c -2.4496,0 -4.6816,0.08741 -4.96,0.194237 -0.30016,0.115181 -0.50617,0.571021 -0.50617,1.12 v 0.925763 h 4.96 4.96 z m 15.04,0.166096 c 0,-1.253728 -0.37981,-1.331878 -5.92,-1.218099 l -4.48,0.092 -0.10028,1.04 -0.10027,1.04 h 5.30027 5.30028 z m 18.72,29.596632 c -0.176,-0.0587 -0.71418,-0.19363 -1.19597,-0.29982 -0.48176,-0.10619 -1.10672,-0.54531 -1.3888,-0.97583 -0.42925,-0.65508 -0.45088,-0.97064 -0.1327,-1.93476 0.48333,-1.46448 1.28397,-1.7643 3.63133,-1.35988 1.15788,0.19949 1.9744,0.20729 2.16105,0.0207 0.17139,-0.1714 0.2625,-2.81355 0.21251,-6.16417 l -0.0874,-5.86418 -1.76,2.97568 c -2.22538,3.76252 -4.34093,6.07956 -5.55085,6.07956 -1.15392,0 -2.44998,-1.30622 -2.4463,-2.46546 0.003,-0.61017 0.51939,-1.49806 1.62777,-2.79299 0.8937,-1.04415 2.20512,-2.75285 2.91428,-3.79709 1.3679,-2.01434 3.7751,-6.62122 3.7751,-7.22477 0,-0.24254 -1.06826,-0.36129 -3.28,-0.36459 -1.804,-0.003 -3.45098,-0.11362 -3.65997,-0.24651 -0.70259,-0.44675 -1.0696,-1.921782 -0.71209,-2.862076 0.18265,-0.480416 0.5031,-0.982211 0.71209,-1.115101 0.20899,-0.132886 2.25197,-0.246921 4.53997,-0.253414 l 4.16,-0.01181 -1.6095,-1.513098 c -0.88522,-0.832205 -2.14522,-1.984589 -2.8,-2.560857 -1.35863,-1.195744 -1.54128,-2.281447 -0.5505,-3.27224 1.05197,-1.051981 2.57405,-0.836416 4.42502,0.626697 l 1.6025,1.266698 0.90624,-0.680375 c 0.49843,-0.374204 1.38282,-1.12422 1.96525,-1.666697 l 1.05904,-0.986323 -6.28544,-0.16 c -5.74896,-0.146343 -6.32419,-0.213021 -6.73904,-0.781162 -0.60365,-0.826675 -0.57674,-2.569942 0.0493,-3.195981 0.43107,-0.431062 1.67734,-0.502857 8.7288,-0.502857 9.02192,0 9.18617,0.03168 9.96995,1.923827 0.80435,1.941885 -0.81958,4.544057 -5.00394,8.018265 -1.2079,1.002909 -1.3087,1.201738 -1.16496,2.297908 l 0.15732,1.2 h 2.22089 c 3.33114,0 4.74909,0.949161 4.74909,3.178966 0,0.53957 0.16333,0.98103 0.36298,0.98103 0.51212,0 6.35702,-2.796275 6.35702,-3.041283 0,-0.111033 -0.66611,-1.019613 -1.48026,-2.019065 -0.81417,-0.999453 -1.55219,-2.004612 -1.64009,-2.233687 -0.10189,-0.265443 -0.75904,0.227357 -1.812,1.358771 -1.42,1.525799 -1.81581,1.775268 -2.81667,1.775268 -0.8769,0 -1.32832,-0.208244 -1.82775,-0.843156 -0.95363,-1.212355 -0.83379,-1.823024 0.69677,-3.550105 2.25274,-2.541984 3.70397,-4.689319 4.73584,-7.007501 1.73446,-3.896544 1.65312,-3.790016 2.97869,-3.900013 0.74518,-0.06184 1.52864,0.105136 2.02774,0.432157 0.69219,0.453542 0.78861,0.706912 0.64707,1.700774 -0.0915,0.642314 -0.26787,1.419844 -0.39206,1.727844 -0.21085,0.52302 0.23082,0.56 6.68848,0.56 6.48758,0 6.95373,0.03949 7.55424,0.64 0.81715,0.817136 0.84656,2.593881 0.0548,3.310403 -0.36285,0.328349 -1.13479,0.529597 -2.03143,0.529597 -1.38486,0 -1.47142,0.05594 -2.04112,1.31928 -0.3272,0.725606 -1.28505,2.321123 -2.12857,3.5456 -0.84356,1.224476 -1.5337,2.294992 -1.5337,2.378924 0,0.224615 4.37331,2.171053 6.32429,2.814762 2.14109,0.70643 2.63571,1.21588 2.63571,2.71469 0,1.47673 -0.77088,2.26674 -2.2119,2.26674 -1.34724,0 -5.34717,-1.59892 -8.15792,-3.26102 -2.11444,-1.25035 -2.24528,-1.28523 -3.03159,-0.80814 -1.12006,0.67961 -1.16211,1.01193 -0.18438,1.45741 0.78013,0.35545 0.82576,0.50031 0.74848,2.37514 l -0.0823,1.99661 4.34765,0.16 c 3.65523,0.13452 4.4528,0.25536 5.00778,0.7587 1.04851,0.95097 1.41062,2.53241 1.16755,5.0991 -0.52362,5.5288 -1.92973,9.8686 -3.53923,10.92317 -2.12419,1.39183 -8.65059,1.28895 -9.81968,-0.15479 -0.68144,-0.84156 -0.72999,-2.19814 -0.10893,-3.04501 0.39994,-0.54538 0.85869,-0.62117 3.76,-0.62117 H 362.72 l 0.53299,-1.60523 c 0.67002,-2.01787 1.27971,-6.31008 0.944,-6.64578 -0.13891,-0.13889 -1.72486,-0.21123 -3.52435,-0.16076 l -3.27181,0.0918 -0.88758,2.10558 c -1.68483,3.99671 -4.32288,7.02545 -8.19325,9.40658 -3.19142,1.96343 -4.44618,2.35996 -5.53459,1.74904 -1.01162,-0.5678 -1.52067,-1.79929 -1.22717,-2.96868 0.16336,-0.65094 0.75562,-1.10335 2.66022,-2.03207 2.88039,-1.40454 5.84791,-4.02186 7.16656,-6.32087 0.51095,-0.89077 0.93034,-1.72758 0.93197,-1.85958 0.003,-0.132 -1.58099,-0.24 -3.51699,-0.24 -3.9624,0 -4.8,-0.39087 -4.8,-2.24 0,-0.86485 -0.10058,-0.96 -1.01482,-0.96 -0.55814,0 -1.27814,-0.23831 -1.6,-0.52959 -0.56537,-0.51167 -0.58518,-0.2688 -0.58518,7.17545 v 7.70505 l -0.82058,0.97519 c -0.45129,0.53635 -1.35129,1.12259 -2,1.30276 -1.09811,0.305 -4.29443,0.41572 -5.01942,0.17388 z M 353.77373,106.1 c 0.11712,-0.781 0.16195,-1.56172 0.0996,-1.73495 -0.0635,-0.17659 -0.88656,0.0198 -1.87334,0.44715 -2.24438,0.97184 -3.96,1.02151 -4.58259,0.13267 -0.44352,-0.63322 -0.48691,-0.60724 -1.29815,0.77698 -0.4616,0.78766 -0.83926,1.51447 -0.83926,1.61513 0,0.10066 1.86317,0.18302 4.14038,0.18302 h 4.14042 z M 343.04,101.85483 c 0,-0.26076 -0.41597,-0.41483 -1.12,-0.41483 h -1.12 l 0.008,2.16 0.008,2.16 1.11181,-1.74517 c 0.61149,-0.95985 1.11181,-1.93185 1.11181,-2.16 z m 17.64842,-9.357478 c 0.50137,-0.782457 0.91158,-1.538457 0.91158,-1.68 0,-0.141542 -1.512,-0.25735 -3.36,-0.25735 -1.848,0 -3.36,0.119459 -3.36,0.265469 0,0.146006 0.80976,1.160265 1.79942,2.253907 1.76096,1.945898 1.81335,1.97616 2.44845,1.414531 0.35693,-0.315648 1.05917,-1.214099 1.56055,-1.996557 z M 408.84317,125.09677 408,124.43355 V 112.45677 100.48 h -2.68269 c -3.03251,0 -3.06304,0.0286 -3.07424,2.88 -0.008,2.08105 -0.83638,6.88218 -1.63161,9.45843 -1.29888,4.20792 -4.6704,9.88878 -6.91828,11.65695 -1.05203,0.82753 -2.34329,0.82049 -3.41001,-0.0186 -1.29578,-1.01923 -1.15207,-2.46095 0.42717,-4.2856 5.22364,-6.03546 6.52844,-10.64211 6.92137,-24.43649 0.14656,-5.144512 0.34781,-7.836566 0.62733,-8.390973 0.60032,-1.190835 2.08678,-1.803721 6.19939,-2.556099 2.01213,-0.368109 5.28954,-1.190979 7.28311,-1.828598 l 3.6247,-1.159309 0.8769,0.652141 c 1.07078,0.796364 1.38694,2.912352 0.55888,3.740435 -0.792,0.791993 -7.40055,2.592061 -13.04202,3.552441 l -1.2,0.204285 v 3.025498 3.025501 h 7.49715 c 8.40986,0 8.50285,0.02419 8.50285,2.21326 0,1.740151 -0.68586,2.214838 -3.3672,2.330458 l -2.2328,0.0963 -0.0783,12 c -0.0769,11.78244 -0.0906,12.01015 -0.75546,12.56 -0.90633,0.74952 -2.25286,0.70718 -3.2831,-0.10323 z m -269.7191,-0.15767 c -1.0777,-0.58475 -1.43583,-1.84835 -0.89435,-3.15554 2.46333,-5.94677 3.14717,-9.56707 3.46586,-18.34862 0.19058,-5.251136 0.32787,-6.500973 0.79194,-7.209229 1.0635,-1.623101 1.9806,-1.957322 5.86677,-2.138032 l 3.60587,-0.167677 -0.70237,-1.76 -0.70236,-1.76 -3.99772,-0.08294 c -3.61521,-0.07501 -4.05129,-0.14729 -4.55771,-0.755454 -0.6767,-0.812659 -0.72458,-2.173996 -0.10622,-3.020444 0.42538,-0.582292 0.96607,-0.627133 8.64,-0.716554 L 158.72,85.72922 v -1.566461 c 0,-1.79623 0.71784,-2.562752 2.4,-2.562752 1.68744,0 2.4,0.76545 2.4,2.578144 v 1.581851 l 7.76,0.0047 c 8.97106,0.0054 9.30641,0.08076 9.45648,2.123434 0.1566,2.13151 -0.28889,2.351862 -4.75473,2.351862 h -3.81254 l -0.96921,1.92 -0.96921,1.92 h 5.1246 c 4.69794,0 5.1779,0.05329 5.76461,0.64 0.7656,0.765603 0.82831,2.148742 0.14186,3.128797 -0.49297,0.703809 -0.58435,0.711207 -8.78546,0.711207 h -8.28731 l 0.78545,0.785456 c 0.60355,0.603539 0.78546,1.122332 0.78546,2.240002 V 103.04 h 6.1688 c 5.06533,0 6.29602,0.0891 6.88,0.49814 0.92974,0.65122 0.96796,2.4451 0.0712,3.34186 -0.59624,0.59624 -1.06667,0.64 -6.88,0.64 h -6.24 v 1.92 1.92 h 5.41714 c 4.49801,0 5.50247,0.0853 5.92,0.50286 0.57381,0.57381 0.66132,2.12313 0.1716,3.03818 -0.30809,0.57568 -0.72208,0.61896 -5.92,0.61896 H 165.76 v 2.4 2.4 h 7.45884 c 7.92376,0 8.28416,0.0648 8.63933,1.55434 0.20106,0.8432 -0.25702,2.30471 -0.83819,2.67425 -0.20899,0.13289 -8.1097,0.24382 -17.55712,0.24651 -15.18623,0.004 -17.23537,-0.0533 -17.67952,-0.49748 -0.75561,-0.7556 -0.93209,-1.90354 -0.44799,-2.91403 l 0.43288,-0.90359 7.59589,-0.0858 7.59588,-0.0858 V 117.91421 115.52 h -4.62186 c -4.41333,0 -4.64432,-0.0321 -5.12,-0.7112 -0.27397,-0.39116 -0.49814,-1.00712 -0.49814,-1.3688 0,-0.36168 0.22417,-0.97764 0.49814,-1.3688 0.47568,-0.67911 0.70667,-0.7112 5.12,-0.7112 H 160.96 v -1.92 -1.92 h -3.67178 -3.67178 l -0.45515,0.88 c -0.25033,0.484 -1.11773,1.78 -1.92756,2.88 -1.41702,1.92476 -1.52513,2 -2.87389,2 -0.87912,0 -1.55584,-0.186 -1.81563,-0.49903 -0.35026,-0.42204 -0.52359,0.0346 -1.12346,2.96 -0.84303,4.11114 -2.158,7.76523 -3.19839,8.88783 -0.84647,0.91335 -1.80917,1.00977 -3.09829,0.3103 z m 8.95723,-17.52285 c 0.86218,-1.28907 2.10005,-3.61572 2.75083,-5.17035 0.65078,-1.55462 1.43178,-3.015344 1.73555,-3.246061 0.46856,-0.355869 0.10939,-0.421027 -2.3685,-0.429661 -1.96289,-0.0068 -3.02613,0.121011 -3.24193,0.389824 C 146.68953,99.29349 146.18,109.76 146.43149,109.76 c 0.0452,0 0.78763,-1.05469 1.64981,-2.34375 z m 12.8787,-5.96378 c 0,-1.22105 0.16168,-1.738161 0.70034,-2.240001 l 0.70034,-0.652467 h -3.9435 -3.94349 l 0.87893,0.69137 c 0.79151,0.622598 0.86414,0.845398 0.73013,2.239998 l -0.1488,1.54863 h 2.51302 2.51303 z m 4.89334,-9.139556 c 0.47666,-0.971901 0.86666,-1.835901 0.86666,-1.92 0,-0.0841 -2.448,-0.152912 -5.44,-0.152912 -2.992,0 -5.44,0.05919 -5.44,0.131526 0,0.07234 0.30798,0.936336 0.68441,1.92 l 0.68441,1.788474 h 3.88893 3.88893 z M 499.21565,124.7945 C 497.88221,124.48058 497.28,123.73561 497.28,122.4 c 0,-1.91836 0.55971,-2.24 3.89798,-2.24 H 504.16 l 0.0873,-5.64759 0.0872,-5.64759 -5.36724,-0.13135 c -3.57372,-0.0875 -5.65616,-0.27351 -6.23184,-0.55675 -1.60176,-0.78811 -1.91273,-2.06554 -1.79824,-7.38676 0.10189,-4.734675 0.11072,-4.785097 0.99008,-5.663584 l 0.8873,-0.886374 H 506.56 520.30544 l 0.8873,0.886374 c 0.88076,0.879895 0.88803,0.922023 0.99392,5.759994 0.1632,7.4583 -0.016,7.64117 -7.68384,7.8458 l -5.01722,0.13389 -0.10278,6.66441 c -0.11485,7.44487 -0.23066,7.85883 -2.52557,9.02903 -1.18429,0.60389 -5.50967,0.7369 -7.6416,0.235 z m 18.1568,-23.4345 0.0925,-2.799998 H 506.57245 495.68 v 2.666668 c 0,1.46666 0.0979,2.76457 0.21757,2.88424 0.11968,0.11967 4.97968,0.17967 10.8,0.13333 L 517.28,104.16 Z m -143.08928,22.77677 c -0.99027,-0.77892 -1.10784,-2.05675 -0.328,-3.56477 1.98857,-3.84547 2.69808,-8.19899 2.96163,-18.172 0.29408,-11.128811 -0.19552,-10.560612 9.09827,-10.558801 5.54423,9.6e-4 6.24576,0.06267 7.17635,0.630073 0.56727,0.345882 1.14327,1.029344 1.28,1.518804 0.3232,1.157126 0.3232,11.182724 0,12.339854 -0.13673,0.48946 -0.71273,1.17292 -1.28,1.5188 -0.91286,0.5566 -1.62643,0.62901 -6.20838,0.63007 l -5.17699,10e-4 -0.21181,1.84 c -0.65878,5.72288 -2.54282,12.13504 -4.03098,13.7191 -0.88486,0.9419 -2.15862,0.97984 -3.28009,0.0977 z M 389.92,100.16 v -3.679998 l -3.81456,-0.09063 c -2.83658,-0.06739 -3.88134,0.01466 -4.07507,0.32 -0.14333,0.225846 -0.26279,1.962928 -0.26547,3.860188 l -0.005,3.44956 4.08,-0.0896 4.08,-0.0896 v -3.68 z m -152.96,23.8712 c -0.528,-0.23307 -1.248,-0.74647 -1.6,-1.14089 -0.6216,-0.69651 -0.64252,-1.23429 -0.72765,-18.70504 l -0.0877,-17.987905 0.73874,-1.098681 c 0.4247,-0.631645 1.21012,-1.26104 1.84765,-1.480621 0.80561,-0.277472 6.0624,-0.386877 19.21932,-0.4 17.85213,-0.01779 18.11886,-0.0087 18.703,0.636752 0.83144,0.918726 0.73547,2.833577 -0.17913,3.574176 -0.64555,0.522761 -1.61608,0.571011 -11.48542,0.571011 h -10.7803 l 0.12582,1.077731 c 0.0708,0.606723 -0.10069,1.51576 -0.39247,2.08 l -0.5183,1.002269 h 9.60822 c 9.18155,0 9.63664,0.02842 10.24822,0.64 0.81714,0.817136 0.84655,2.593882 0.0548,3.310403 -0.49933,0.451895 -1.43833,0.529597 -6.4,0.529597 H 259.52 v 1.075338 c 0,0.591433 -0.0916,1.743433 -0.20349,2.56 l -0.2035,1.48466 h 7.6595 c 5.53071,0 7.76621,0.10672 8.04349,0.384 0.58058,0.58058 0.4818,2.97632 -0.14419,3.49682 -0.39593,0.32922 -2.21489,0.47924 -7.26474,0.59918 l -6.73655,0.16 2.03615,2.17574 c 1.59349,1.70273 2.59893,2.44467 4.62474,3.41273 1.42373,0.68034 3.42594,1.41826 4.44937,1.63983 2.04191,0.44206 2.77922,1.13645 2.77922,2.61745 0,1.07963 -1.27344,2.47425 -2.25926,2.47425 -1.33636,0 -4.62556,-1.02677 -6.91393,-2.15828 -2.73979,-1.35472 -5.1492,-3.37981 -6.97972,-5.86639 l -1.32656,-1.80201 -0.73666,1.27997 c -1.0653,1.851 -3.0237,3.87162 -5.06678,5.22773 -2.18455,1.45002 -6.53552,3.31898 -7.72665,3.31898 -1.22892,0 -2.27044,-1.20254 -2.27044,-2.62144 0,-1.36284 0.33285,-1.67726 2.60202,-2.45797 2.81708,-0.96921 5.05964,-2.23779 6.74842,-3.81744 1.36716,-1.27882 2.48956,-2.81496 2.48956,-3.40726 0,-0.0967 -2.52,-0.17589 -5.6,-0.17589 -5.17333,0 -5.64876,-0.0488 -6.24,-0.64 -0.69557,-0.69557 -0.84211,-2.22442 -0.30874,-3.22104 0.31084,-0.5808 0.7325,-0.61896 6.84,-0.61896 H 254.32 l 0.2,-1 c 0.11,-0.55 0.2,-1.701998 0.2,-2.559998 v -1.56 h -2.59179 -2.59178 l -2.28822,2.400736 c -2.57084,2.697262 -3.47818,2.998382 -4.86275,1.613802 -1.26388,-1.263866 -1.0241,-2.128388 1.30872,-4.718522 1.3016,-1.445168 2.63134,-3.39025 3.51346,-5.139341 l 1.41927,-2.814166 -4.55345,0.08875 -4.55346,0.08874 V 103.84 119.52 l 18.02593,0.16 c 17.37627,0.15423 18.0423,0.18239 18.48,0.78116 0.66242,0.90618 0.56783,2.62508 -0.18593,3.37884 -0.62565,0.62565 -1.05804,0.63972 -19.28,0.62748 -14.75096,-0.01 -18.84029,-0.10094 -19.6,-0.43628 z M 14.72,123.51204 C 6.425769,122.86484 1.9199179,119.31647 1.9301539,113.44 c 0.00461,-2.64475 0.6612695,-4.33009 2.3420058,-6.01083 1.4334006,-1.4334 4.5792777,-2.94804 7.0666113,-3.40236 2.694014,-0.49206 8.904526,-0.41973 11.519156,0.13415 1.219859,0.25842 2.253864,0.43392 2.297788,0.38999 0.04392,-0.0439 -0.57874,-0.86986 -1.383699,-1.8354 -0.804958,-0.96556 -2.122402,-2.743055 -2.927654,-3.950012 l -1.464093,-2.194461 -2.090135,0.20344 C 12.968161,97.195196 6.7886906,97.581656 4.24,97.590668 1.0652782,97.601893 0.32,97.116956 0.32,95.040002 c 0,-2.172954 0.6839117,-2.558304 4.56,-2.569334 3.3474096,-0.0095 11.432961,-0.51696 11.646941,-0.730941 0.06506,-0.06506 -0.404415,-1.249597 -1.04327,-2.632317 -1.534854,-3.321987 -1.710271,-4.636835 -0.739299,-5.541434 0.515427,-0.480192 1.14797,-0.685974 2.108591,-0.685974 1.540057,0 1.961012,0.425421 2.814447,2.844314 0.270476,0.766611 0.878617,2.25584 1.351424,3.309395 l 0.85965,1.915552 1.788675,-0.202365 c 0.983771,-0.111302 3.369112,-0.576035 5.300758,-1.032742 5.33392,-1.261124 5.429389,-1.26594 6.373757,-0.321572 0.965891,0.965892 1.074492,2.385421 0.258326,3.376599 -0.632486,0.768112 -3.217837,1.574224 -7.821696,2.438809 -2.778098,0.521716 -3.070233,0.641277 -2.800118,1.145991 0.708249,1.323376 3.887524,5.267927 6.813836,8.453987 2.89809,3.15534 3.13658,3.51238 2.960343,4.43192 -0.220739,1.15173 -1.528371,2.44011 -2.476573,2.44011 -0.356686,0 -1.648392,-0.43885 -2.870458,-0.97522 -7.02027,-3.08121 -16.595304,-3.37694 -20.3877846,-0.62968 -2.8984867,2.09965 -2.4022224,5.42612 1.0624506,7.12163 3.434884,1.68093 12.742551,1.63872 19.04,-0.0864 1.985002,-0.54375 3.091459,-0.3893 3.816774,0.53279 0.883312,1.12295 0.849031,2.52013 -0.08474,3.4539 -1.638724,1.63873 -11.406932,2.93974 -18.132029,2.41498 z M 112,123.2 c -0.76527,-0.76527 -0.82838,-2.14864 -0.14268,-3.12762 0.27352,-0.39051 1.28784,-1.08399 2.25403,-1.54107 2.67058,-1.26339 5.35932,-3.935 6.68763,-6.64502 0.61634,-1.25746 1.20569,-2.72921 1.30967,-3.27055 0.18424,-0.9592 0.13128,-1.01008 -2.0806,-1.9991 -2.38737,-1.06748 -6.43352,-2.29664 -7.56006,-2.29664 -0.55054,0 -0.93441,0.6678 -2.23219,3.88314 -1.72099,4.26387 -3.85804,8.2333 -5.20687,9.67138 -0.47791,0.50953 -1.58893,1.26681 -2.46893,1.68283 -3.59143,1.69785 -6.930848,0.48562 -8.90663,-3.23315 -0.991076,-1.86539 -0.971655,-7.3153 0.03395,-9.52706 1.960886,-4.31284 7.521,-7.575397 12.93913,-7.592408 l 1.50645,-0.0047 0.64218,-2.16 c 0.62432,-2.099969 1.62492,-6.51268 1.62492,-7.166024 0,-0.215609 -2.07951,-0.247379 -6.21034,-0.09487 l -6.210329,0.229283 -0.829667,-0.829664 c -0.935552,-0.935555 -1.073002,-2.269993 -0.334429,-3.246835 0.61504,-0.813453 3.248145,-1.086493 10.704765,-1.110029 5.01634,-0.01584 5.69781,0.0468 6.53842,0.600938 2.14558,1.414377 2.23491,2.908541 0.55778,9.329971 l -1.22042,4.6728 1.94211,0.387891 c 1.06816,0.213337 3.23394,0.874747 4.81285,1.469787 1.57891,0.59505 2.94691,1.00598 3.04,0.91319 0.0931,-0.0928 0.24126,-2.329844 0.32926,-4.971233 0.15214,-4.566486 0.19713,-4.832569 0.91545,-5.413878 0.99587,-0.805917 2.74404,-0.791869 3.56455,0.02864 0.57505,0.575053 0.63833,1.054045 0.62357,4.72 -0.009,2.244 -0.12489,5.055661 -0.25745,6.248131 l -0.24102,2.16813 2.61172,1.89754 c 3.50983,2.55007 4.62318,3.84976 4.62318,5.39699 0,1.59525 -0.93339,2.60921 -2.40187,2.60921 -0.89988,0 -1.51181,-0.37366 -3.40637,-2.08 -1.27018,-1.144 -2.40939,-2.08 -2.53158,-2.08 -0.12218,0 -0.53833,0.84546 -0.92477,1.8788 -1.58504,4.23834 -4.88708,7.95066 -8.98949,10.10641 -2.49297,1.31002 -4.13187,1.46884 -5.10592,0.49479 z m -10.18103,-9.55605 c 0.95879,-1.092 3.56988,-6.2537 4.37331,-8.64532 l 0.36327,-1.08136 -1.43311,0.16153 c -2.13551,0.2407 -4.8537,1.69664 -5.922699,3.17234 -1.698909,2.34528 -1.871421,6.11585 -0.336701,7.35921 0.876592,0.71017 1.72838,0.43169 2.95593,-0.9664 z m 422.16461,9.70087 c -0.53702,-0.26574 -1.98297,-1.37904 -3.21321,-2.47399 -4.10503,-3.65365 -7.17037,-7.40428 -7.17037,-8.77339 0,-1.15527 1.35645,-2.33744 2.68202,-2.33744 0.99184,0 1.31107,0.2465 2.97452,2.29691 1.0249,1.2633 2.94346,3.21437 4.26346,4.3357 1.32,1.12135 2.796,2.37515 3.28,2.78624 0.65987,0.56048 0.88,1.0368 0.88,1.9043 0,1.1032 -0.86134,2.43685 -1.57382,2.43685 -0.1616,0 -0.4856,0.0693 -0.72,0.15399 -0.2344,0.0847 -0.86557,-0.0634 -1.4026,-0.32917 z M 45.963155,122.85677 c -1.206045,-0.94867 -1.128857,-2.45867 0.242035,-4.73491 1.75602,-2.91571 4.009258,-7.59984 5.478461,-11.38886 1.60096,-4.12882 2.897546,-8.107936 2.696983,-8.276812 -0.07735,-0.06513 -1.995012,0.104716 -4.261469,0.377433 l -4.120839,0.495853 -0.759161,-0.882582 c -0.961498,-1.117805 -0.966727,-2.26842 -0.01462,-3.220509 0.755507,-0.755507 2.354704,-1.083565 8.352905,-1.713504 2.575536,-0.270487 2.348138,0.110323 3.350832,-5.611408 0.375453,-2.142467 0.820103,-3.695021 1.168506,-4.08 0.691299,-0.763879 2.584701,-0.828883 3.592026,-0.123325 0.90287,0.632394 0.935513,2.628413 0.107734,6.587382 l -0.57824,2.765524 3.230854,0.131801 c 4.624343,0.188647 6.633645,1.380823 8.2537,4.897149 0.681299,1.478762 0.735536,2.012208 0.715779,7.039998 -0.03652,9.29295 -1.709552,14.85659 -5.100023,16.96 -2.125734,1.31878 -5.780784,1.51579 -9.147881,0.49307 C 56.462886,121.75059 55.36,120.79604 55.36,119.27489 c 0,-2.352 1.807984,-2.99994 5.12,-1.83489 4.120723,1.44953 5.932605,0.54943 6.829194,-3.39256 1.728688,-7.60046 1.42718,-14.777992 -0.657357,-15.64875 -1.233552,-0.515283 -3.213053,-0.749101 -4.904957,-0.579373 l -1.773117,0.177875 -0.711734,2.539918 c -1.93425,6.90263 -7.333178,19.387 -9.49513,21.95633 -1.039808,1.23574 -2.515462,1.3767 -3.803744,0.36333 z m 440.262285,-0.12223 c -1.28429,-1.2843 -1.0641,-2.47803 0.72282,-3.91861 2.81376,-2.26839 5.86832,-5.33468 6.97459,-7.00133 1.13821,-1.7148 1.61123,-2.0546 2.86016,-2.0546 1.06809,0 2.41699,1.18236 2.41699,2.1186 0,2.693 -8.64736,11.6414 -11.24976,11.6414 -0.57066,0 -1.24762,-0.30828 -1.7248,-0.78546 z M 82.978282,110.66999 c -0.48225,-0.24155 -1.12162,-1.41463 -2.044276,-3.75073 -1.790156,-4.53255 -3.49423,-7.90113 -5.808057,-11.481248 -1.471299,-2.2765 -1.86928,-3.141495 -1.719661,-3.737623 0.393475,-1.567721 2.096394,-2.455101 3.657718,-1.906013 C 79.34121,90.595228 86.72,104.82704 86.72,108.41834 c 0,1.42712 -0.675126,2.21394 -2.100998,2.44859 -0.516452,0.085 -1.254775,-0.004 -1.64072,-0.19694 z M 80.553405,91.305541 C 79.985034,90.483586 78.836,88.947986 78,87.893096 c -0.836,-1.054889 -1.52,-2.243929 -1.52,-2.642313 0,-1.014432 1.505862,-2.138707 2.54615,-1.900954 1.518615,0.347075 5.77385,5.815338 5.77385,7.419786 0,1.044797 -1.090544,2.030387 -2.246595,2.030387 -0.789959,0 -1.155437,-0.273094 -2,-1.494461 z M 485.6496,91.254805 c -0.7432,-0.821235 -0.68266,-2.781737 0.1104,-3.574803 0.60896,-0.60897 1.06666,-0.64 9.44,-0.64 h 8.8 v -2.221856 c 0,-1.933242 0.0924,-2.28656 0.7112,-2.72 1.08467,-0.759722 2.70477,-0.631254 3.62336,0.287312 0.6607,0.660704 0.78544,1.092704 0.78544,2.72 v 1.934544 h 8.96 c 8.53334,0 8.99046,0.03046 9.6,0.64 0.77254,0.772538 0.84154,2.449872 0.14186,3.448797 l -0.49815,0.711203 h -20.57225 c -19.52368,0 -20.59927,-0.02982 -21.10186,-0.585197 z M 85.07599,87.600002 c -0.741321,-1.1 -1.826684,-2.590832 -2.411923,-3.312957 C 81.444368,82.782053 81.32833,81.871672 82.24,80.960002 c 1.47263,-1.47263 3.414886,-0.243584 6.16,3.898003 1.851216,2.792957 1.485027,4.741997 -0.890934,4.741997 -0.974096,0 -1.223232,-0.20479 -2.433076,-2 z m 290.29767,0.105514 c -0.5318,-0.99369 -0.39964,-2.746618 0.25152,-3.335917 0.51725,-0.468106 1.70359,-0.529597 10.21716,-0.529597 8.32572,0 9.70006,0.06813 10.13433,0.502378 0.75562,0.755632 0.93207,1.903568 0.44791,2.914028 l -0.43296,0.903594 -10.14215,0.08448 c -9.77049,0.08138 -10.1544,0.06163 -10.47581,-0.538963 z M 493.29814,44.728799 c -0.7358,-1.050535 -0.61868,-2.397351 0.2873,-3.303341 0.74294,-0.742918 0.98486,-0.785456 4.46726,-0.785456 h 3.6818 l 0.0928,-10.268612 0.0927,-10.268613 0.75546,-0.611387 c 0.91398,-0.739697 2.52441,-0.791902 3.49334,-0.113243 l 0.7112,0.498146 v 11.693854 11.693855 l -1.088,1.088 -1.088,1.088 h -5.45386 c -5.27308,0 -5.47036,-0.02358 -5.952,-0.711203 z m 102.93306,0.213059 c -0.6791,-0.475674 -0.7112,-0.706666 -0.7112,-5.12 0,-2.542022 -0.0855,-4.621856 -0.19011,-4.621856 -0.10455,0 -1.29255,0.807222 -2.64,1.79383 -3.82423,2.800135 -12.10176,6.52617 -14.49815,6.52617 -1.01968,0 -2.19174,-1.42584 -2.19174,-2.666272 0,-0.602451 0.19814,-1.259821 0.44035,-1.460822 0.24221,-0.201005 2.00621,-0.87026 3.92,-1.487232 3.77159,-1.215892 8.66563,-3.504935 10.19965,-4.770599 l 0.96,-0.792057 -7.0704,-0.01152 c -6.43469,-0.01046 -7.11802,-0.06413 -7.6,-0.596705 -0.70294,-0.776732 -0.67357,-2.385323 0.0556,-3.045206 0.51546,-0.466466 1.66218,-0.529587 9.62128,-0.529587 h 9.03604 l -0.10127,-0.88 -0.10125,-0.88 -6.97222,-0.16 c -7.62052,-0.174878 -7.57325,-0.161717 -7.58288,-2.110404 -0.01,-1.942081 0.40803,-2.049596 7.96156,-2.049596 h 6.79604 l -0.10125,-0.88 -0.10125,-0.88 -8.13398,-0.08561 c -5.34576,-0.05626 -8.28,-0.206808 -8.56,-0.439182 -0.63738,-0.528992 -0.5346,-2.63775 0.15916,-3.265614 0.4904,-0.443806 1.37162,-0.529594 5.44,-0.529594 2.67015,0 4.8489,-0.108 4.84164,-0.24 -0.007,-0.132 -0.33127,-0.888 -0.72,-1.68 l -0.70682,-1.44 -5.37242,-0.16 c -5.8608,-0.174546 -5.97324,-0.213994 -5.98268,-2.098838 -0.009,-1.875767 0.55718,-2.2086611 3.96896,-2.3320521 1.6864,-0.060989 3.06614,-0.1776278 3.06614,-0.2591971 0,-0.081569 -0.504,-0.8083763 -1.12,-1.6151274 -0.616,-0.8067507 -1.12,-1.718159 -1.12,-2.0253517 0,-0.8733286 1.0224,-1.888679 2.11382,-2.0992355 1.31709,-0.2540932 2.75191,0.9933954 4.41671,3.8400295 1.18333,2.0234387 1.28448,2.1097718 2.47165,2.1097718 H 591.36 V 4.8181468 c 0,-2.9252808 0.0573,-3.2220235 0.7112,-3.68 0.90787,-0.63590665 2.14973,-0.63590665 3.0576,0 0.65386,0.4579765 0.7112,0.7547192 0.7112,3.68 v 3.1818547 h 1.76 1.76 V 4.8391839 c 0,-3.5989215 0.23693,-4.02463693 2.24,-4.02463693 2.00307,0 2.24,0.42571543 2.24,4.02463693 v 3.1608176 h 1.58464 c 1.50723,0 1.62934,-0.066414 2.50064,-1.36 0.50381,-0.748 1.30797,-2.0425696 1.78701,-2.8768214 0.90041,-1.5681193 1.8311,-2.0820078 3.06272,-1.6911099 1.85369,0.5883421 2.09552,2.1806823 0.67203,4.4252814 l -0.95296,1.5026499 h 2.88752 c 2.63907,0 2.95507,0.067577 3.67296,0.7854544 0.90189,0.901896 1.00381,1.9603661 0.2873,2.9833441 -0.48103,0.686759 -0.68221,0.711202 -5.85335,0.711202 h -5.3552 l -0.86317,1.76 -0.8632,1.76 h 5.11655 c 4.68985,0 5.16989,0.05337 5.75651,0.64 0.352,0.352 0.63779,1.036 0.6351,1.52 -0.0102,1.856004 0.12634,1.826238 -9.18304,2 l -8.57206,0.16 -0.10125,0.88 -0.10125,0.88 h 7.03837 c 7.82976,0 8.04413,0.05543 8.04413,2.08 0,2.023871 -0.21648,2.08 -8.02285,2.08 H 600 v 0.96 0.96 h 9.25715 c 10.27581,0 10.26285,-0.0026 10.26285,2.08 0,2.030317 -0.19638,2.08 -8.22205,2.08 -5.884,0 -7.15257,0.07679 -6.87113,0.41591 1.09456,1.318874 11.42684,5.66409 13.46838,5.66409 0.31818,0 0.95792,0.298451 1.42163,0.663226 1.71072,1.345635 0.68701,4.456774 -1.46649,4.456774 -1.22797,0 -6.99738,-2.086198 -10.14119,-3.66703 C 606.19712,39.092661 603.844,37.668984 602.48,36.689247 L 600,34.907903 v 4.626051 c 0,4.199382 -0.059,4.685075 -0.64,5.266048 -0.7656,0.765603 -2.14874,0.82831 -3.1288,0.141856 z m 5.84342,-30.531218 c 0.44295,-0.874149 0.80538,-1.666149 0.80538,-1.76 0,-0.09385 -2.2417,-0.170638 -4.98157,-0.170638 -5.60416,0 -5.21734,-0.231565 -4.09603,2.452126 l 0.44618,1.067874 h 3.51033 3.51031 z M 211.584,44.416002 c -0.28306,-0.283056 -0.384,-3.14311 -0.384,-10.88 0,-5.7728 -0.0873,-10.496 -0.19395,-10.496 -0.10666,0 -0.47712,0.36 -0.82322,0.8 -0.90296,1.147932 -2.84019,1.125695 -3.7596,-0.04315 -0.36478,-0.463735 -0.66323,-1.079459 -0.66323,-1.368276 0,-0.288818 0.6718,-1.601398 1.4929,-2.916846 2.82603,-4.5275 5.31594,-10.5631081 6.82855,-16.5525791 0.42342,-1.6766233 1.47353,-2.46773781 2.86884,-2.16127781 C 218.30084,1.0945005 218.88,1.7742803 218.88,3.0628587 v 1.0971428 h 3.79684 c 3.35663,0 3.89461,0.076897 4.64,0.6632256 0.69044,0.5430954 0.84316,0.9272816 0.84316,2.1210477 0,1.6330982 -0.87831,3.4049052 -3.7305,7.5254502 -0.94022,1.358348 -1.7095,2.546348 -1.7095,2.64 0,0.09365 0.78397,0.170277 1.74216,0.170277 1.38286,0 1.92732,0.159838 2.64,0.775039 0.87321,0.753777 0.89677,0.858828 0.859,3.829312 -0.0386,3.039168 -0.0355,3.051952 0.63121,2.584961 0.47191,-0.330544 1.54786,-0.469312 3.63883,-0.469312 H 235.2 v -1.12 -1.12 h -2.85714 c -3.17182,0 -3.86286,-0.336623 -3.86286,-1.881696 0,-1.641916 0.52728,-1.932741 3.68,-2.029717 l 2.88,-0.08859 v -1.28 -1.28 l -3.66052,-0.09105 c -2.02584,-0.05039 -3.84785,-0.246514 -4.08,-0.439183 -0.23072,-0.19147 -0.41948,-0.898334 -0.41948,-1.570804 0,-1.889606 0.72302,-2.218963 4.8712,-2.218963 H 235.2 v -1.1200005 -1.12 h -2.72 c -2.29333,0 -2.82039,-0.100392 -3.36,-0.64 -0.7672,-0.7672006 -0.82132,-1.8387299 -0.14186,-2.8087981 0.45163,-0.6447865 0.7654,-0.7112019 3.36,-0.7112019 H 235.2 v -1.376 c 0,-1.7252756 0.41518,-2.14399997 2.12586,-2.14399997 1.59439,0 2.35414,0.79753237 2.35414,2.47120187 v 1.0487981 h 3.21589 c 4.80326,0 5.74411,0.7362643 5.74411,4.495057 0,1.8693585 0.0166,1.9049435 0.8888,1.9049435 1.37666,0 2.3112,0.823658 2.3112,2.036984 0,1.40736 -0.5805,2.068007 -1.92,2.185106 l -1.12,0.09791 -0.18095,2.24 c -0.0995,1.232 -0.29066,2.480878 -0.42475,2.775284 -0.47901,1.051705 -2.21609,1.544716 -5.44266,1.544716 H 239.68 v 1.095206 1.095206 l 4.34648,0.104794 c 3.86345,0.09315 4.39688,0.173824 4.8,0.725956 0.62931,0.861924 0.56667,2.217247 -0.13168,2.849242 -0.48218,0.436369 -1.32714,0.529596 -4.8,0.529596 H 239.68 v 1.28 1.28 h 5.216 c 3.63022,0 5.33275,0.116744 5.6,0.384 0.49679,0.496789 0.49679,2.57521 0,3.072 -0.26725,0.267254 -1.96978,0.384 -5.6,0.384 h -5.216 v 1.419168 c 0,0.780544 -0.14871,1.810301 -0.33046,2.288352 l -0.33047,0.869187 5.79967,-0.179155 c 5.41476,-0.167264 5.84019,-0.138618 6.41046,0.431648 0.80246,0.802458 0.80514,2.656461 0.005,3.456605 -1.35559,1.355597 -14.26439,1.158563 -19.52039,-0.297946 -2.74952,-0.761929 -4.81333,-1.761126 -6.85243,-3.317609 l -1.48245,-1.131575 -1.4031,2.150663 c -2.0415,3.12919 -2.86692,3.911584 -4.12054,3.905763 -0.58041,-0.0026 -1.26439,-0.137184 -1.51996,-0.298861 -0.32742,-0.207126 -0.59272,-0.111152 -0.89815,0.324899 -0.32494,0.463911 -0.81352,0.618861 -1.95133,0.618861 -0.83482,0 -1.69065,-0.1728 -1.90185,-0.384 z m 5.10301,-4.816 c 0.85558,-0.978429 3.47299,-4.930992 3.47299,-5.244576 0,-0.138877 -0.55806,-1.337661 -1.24014,-2.663965 -1.25101,-2.432596 -2.59986,-6.008655 -2.59986,-6.892733 0,-0.849639 1.22031,-1.758726 2.36082,-1.758726 1.32263,0 1.53292,0.252191 2.40149,2.88 1.20379,3.642012 1.36898,3.538193 2.25738,-1.418771 0.57777,-3.223722 0.69637,-3.061229 -2.23423,-3.061229 -2.30681,0 -2.65623,-0.08169 -3.36,-0.785454 -1.21813,-1.218124 -1.08025,-2.939334 0.38973,-4.865107 0.64636,-0.84677 2.02833,-2.8378 3.07105,-4.42451 l 1.89586,-2.8849295 -2.17771,-0.09614 C 219.72665,8.3309845 218.5572,8.1304641 218.32561,7.9382612 217.79786,7.5002683 217.89858,7.3372375 216.69595,10.57611 L 215.68,13.312217 V 26.81611 c 0,7.42714 0.0849,13.503892 0.18871,13.503892 0.10379,0 0.47202,-0.324 0.8183,-0.72 z M 235.2,36.649032 v -2.070969 l -4.39104,-0.08903 c -4.24167,-0.086 -4.40372,-0.114486 -4.76362,-0.837337 -0.27097,-0.544218 -0.44118,-0.637315 -0.6241,-0.341347 -0.34571,0.559379 2.02562,2.61719 4.20287,3.647193 0.94599,0.447527 2.55156,1.015162 3.56794,1.261415 1.01637,0.246249 1.88395,0.459724 1.92795,0.474387 0.044,0.01466 0.08,-0.905277 0.08,-2.044311 z m -0.0613,-7.278015 0.0987,-1.188984 -3.44992,-0.09102 c -3.30551,-0.0872 -3.46634,-0.124025 -3.84237,-0.879626 -0.44212,-0.888409 -0.46417,-0.852137 -1.16019,1.908611 l -0.44371,1.76 4.34944,-0.16 4.34943,-0.16 z m 8.9597,-12.971015 0.0984,-1.36 h -2.2584 -2.2584 v 1.454621 1.454621 l 2.16,-0.09462 2.16,-0.09462 z M 244.16,9.7600015 v -1.12 h -2.24 -2.24 v 1.12 1.1200005 h 2.24 2.24 z m 28.86749,34.6787495 c -1.18809,-0.342631 -1.85168,-1.444455 -1.55093,-2.575152 0.42319,-1.591043 0.66324,-1.703597 3.63341,-1.703597 H 277.92 l 0.0967,-1.68 c 0.0532,-0.924 0.0341,-1.68 -0.0424,-1.68 -0.0765,0 -1.92004,0.856506 -4.09672,1.903344 -7.74316,3.723958 -10.07337,4.092253 -10.85758,1.716077 -0.59115,-1.791184 0.17605,-2.513207 4.01999,-3.783303 1.76,-0.581529 3.66609,-1.258345 4.23575,-1.504032 l 1.03575,-0.446707 -2.69947,-1.999337 c -2.84112,-2.104248 -3.24435,-2.672593 -2.78093,-3.919664 0.22859,-0.615127 0.13521,-0.90546 -0.47315,-1.471098 -0.87562,-0.814125 -0.97167,-1.887754 -0.25981,-2.904078 0.4833,-0.690004 0.66929,-0.711202 6.24,-0.711202 H 278.08 v -1.12 -1.12 h -6.84603 -6.84603 l -0.21089,2.96 c -0.55015,7.721738 -1.9177,14.595693 -3.59087,18.049466 -0.84764,1.749702 -0.98528,1.877043 -2.13064,1.971308 -1.81045,0.149005 -2.77554,-0.60262 -2.77554,-2.161622 0,-0.68535 0.29892,-1.942032 0.66426,-2.792621 0.85122,-1.981833 2.09143,-7.175808 2.54694,-10.666531 0.19521,-1.496 0.45437,-6.90512 0.57592,-12.020268 0.30406,-12.7957283 -0.30651,-12.0650298 10.27757,-12.2997325 l 7.21531,-0.16 0.095,-1.44 c 0.11453,-1.7356959 0.67209,-2.23999997 2.47655,-2.23999997 1.70169,0 2.38844,0.72032087 2.38844,2.50519697 v 1.334803 h 8.4304 c 7.76084,0 8.47247,0.046478 8.96,0.5851971 0.70294,0.7767319 0.67356,2.3853232 -0.0556,3.0452067 -0.51266,0.4639645 -1.60747,0.5295962 -8.83422,0.5295962 -7.39058,0 -8.22883,0.052676 -8.05481,0.5061718 0.10684,0.2783949 0.19424,0.7823949 0.19424,1.1200007 0,0.57603 0.2808,0.614298 4.56,0.621462 7.34473,0.0123 8.29103,0.463407 8.56,4.080617 l 0.16,2.151749 1.84315,0.09606 c 1.53633,0.08007 1.92723,0.224393 2.34828,0.866995 0.62,0.946237 0.34244,2.579964 -0.5164,3.039603 -0.32613,0.17454 -1.30668,0.317342 -2.17902,0.317342 h -1.58606 l -0.13159,2.48 c -0.0724,1.364 0.002,2.534 0.16503,2.6 0.76077,0.307785 1.49661,1.405968 1.49661,2.233582 0,0.994289 -1.98462,3.089574 -4.88,5.152127 -0.836,0.595529 -1.52,1.13328 -1.52,1.194998 0,0.24536 4.9464,3.322074 6.59383,4.101434 1.855,0.877555 2.5594,1.900304 2.17647,3.160125 -0.36946,1.215526 -1.13422,1.797734 -2.36141,1.797734 -2.48251,0 -9.83434,-5.255107 -13.00702,-9.297462 l -1.56187,-1.989991 -0.16,4.619869 c -0.17959,5.185395 -0.48323,6.047328 -2.41461,6.854314 -1.22624,0.512355 -5.47011,0.567222 -7.1179,0.09202 z m 3.78665,-11.878749 c 1.25605,-0.717211 1.26094,-0.727747 1.2634,-2.72 l 0.002,-2 h -3.7152 -3.71521 l 2.03521,1.489961 c 2.36844,1.733924 2.50378,1.899446 2.5103,3.070039 0.006,1.062867 0.0331,1.065558 1.61904,0.16 z m 12.93245,-2.149325 c 3.35266,-2.667795 3.39903,-2.570675 -1.22741,-2.570675 -2.22155,0 -4.03811,0.108 -4.0368,0.24 0.003,0.297634 2.86589,3.92 3.09817,3.92 0.0928,0 1.0675,-0.715196 2.16604,-1.589325 z m 1.39369,-7.930675 0.10027,-1.04 H 286.90028 282.56 v 1.129288 1.129288 l 4.24,-0.08929 4.24,-0.08929 z m -13.11903,-6.24 0.10126,-0.88 h -5.23005 c -6.10688,0 -6.65246,-0.183707 -6.65246,-2.24 0,-2.055006 0.54765,-2.24 6.6312,-2.24 4.92144,0 5.2088,-0.03386 5.2088,-0.613828 0,-0.3376058 0.0874,-0.8416058 0.19424,-1.1200007 0.17323,-0.4514358 -0.51638,-0.5061718 -6.37715,-0.5061718 -5.54731,0 -6.64974,0.078364 -7.07423,0.5028573 -0.39761,0.3976077 -0.50286,1.2571432 -0.50286,4.1066672 0,1.982095 0.0988,3.702649 0.21964,3.823454 0.12081,0.120804 3.18081,0.180804 6.8,0.133333 l 6.58036,-0.08631 z m 13.12,0 0.10126,-0.88 h -4.34126 c -4.33464,0 -4.34125,0.0011 -4.34125,0.746667 0,0.410666 0.10009,0.846759 0.22243,0.969094 0.12233,0.122335 2.03033,0.182335 4.24,0.133333 L 291.04,17.120002 Z M 374.08,44.093916 c -2.41635,-0.532855 -3.21123,-1.72169 -2.41898,-3.617831 0.56685,-1.356662 1.52036,-1.638726 3.73984,-1.106285 2.54279,0.610013 5.90404,0.581652 6.54132,-0.05519 0.52467,-0.524314 1.40336,-3.630621 1.41283,-4.994605 l 0.005,-0.72 h -9.9359 c -8.25892,0 -10.09444,-0.082 -10.87536,-0.485821 -1.55767,-0.805501 -1.59642,-2.08971 -0.16288,-5.39734 0.64665,-1.492023 0.96115,-1.537181 -4.30586,0.618274 -4.48531,1.835551 -5.6455,2.0393 -6.70896,1.178183 -0.87594,-0.70931 -1.07619,-2.535448 -0.37117,-3.384962 0.22435,-0.27031 1.80115,-0.951248 3.504,-1.513196 3.37031,-1.112208 10.55648,-4.206221 12.85613,-5.535231 l 1.44,-0.832198 -8.24,-0.0039 c -7.81056,-0.0037 -8.27334,-0.03721 -8.88,-0.643853 -0.81715,-0.817137 -0.84656,-2.593882 -0.0548,-3.310404 0.51056,-0.462048 1.57178,-0.529596 8.32,-0.529596 H 367.68 V 11.840002 9.9200015 h -5.5504 c -4.97075,0 -5.60573,-0.061115 -6.08,-0.5851971 -0.72867,-0.8051536 -0.6721,-2.4722947 0.1104,-3.2548029 0.58979,-0.5898038 1.06666,-0.64 6.08,-0.64 h 5.44 V 3.7032271 c 0,-1.4951226 0.11731,-1.8290544 0.84317,-2.4 1.00211,-0.78826435 2.26425,-0.85246026 3.24563,-0.1650803 0.5993,0.4197535 0.7112,0.797435 0.7112,2.4 v 1.9018547 h 3.9288 c 4.39722,0 5.15366,0.2683318 5.59875,1.9859872 l 0.25843,0.9973082 2.52356,-2.9506528 c 3.29763,-3.8557237 4.02947,-4.224938 5.72729,-2.889417 1.44634,1.1376902 1.17725,2.4526323 -1.02505,5.0085578 -1.02752,1.192519 -2.75552,2.9886181 -3.84,3.9913301 -1.08448,1.002712 -1.97178,1.902712 -1.97178,2 0,0.09729 2.22694,0.176887 4.94874,0.176887 5.53417,0 5.61126,0.03243 5.61126,2.360818 0,2.030994 -0.38342,2.119182 -9.21354,2.119182 h -7.79113 l -1.33767,0.919475 C 375.16195,19.665188 373.624,20.61203 372.48,21.26357 l -2.08,1.184618 2.4,-0.200836 c 3.5424,-0.296435 8.7576,-1.089698 11.77238,-1.790653 1.45882,-0.339184 3.07066,-0.616697 3.58186,-0.616697 1.70272,0 2.55293,2.369916 1.36576,3.806965 -0.94026,1.138157 -8.73779,2.527908 -17.93866,3.197192 -2.16627,0.157577 -3.99056,0.3384 -4.05398,0.40183 -0.0635,0.06343 -0.21466,0.51103 -0.33603,0.994669 l -0.22071,0.879344 9.23469,5.12e-4 c 10.68,5.76e-4 11.11898,0.0906 11.93367,2.447162 0.40547,1.172792 0.3959,1.714037 -0.0821,4.639998 -0.72157,4.417181 -1.78554,6.574474 -3.72471,7.552343 -1.25053,0.630611 -1.88621,0.715744 -5.12,0.685731 -2.03072,-0.01885 -4.34019,-0.177168 -5.13219,-0.351818 z m 3.93773,-32.100952 c 1.17824,-0.971871 2.14227,-1.835871 2.14227,-1.92 0,-0.08413 -1.728,-0.1529625 -3.84,-0.1529625 h -3.84 v 1.7066675 c 0,0.938666 0.096,1.802666 0.21334,1.92 0.11732,0.117333 0.88132,0.213333 1.69773,0.213333 1.32803,0 1.71008,-0.186152 3.62666,-1.767038 z m 151.14899,31.702318 c -1.0831,-1.003805 -1.06618,-1.842739 0.0886,-4.38953 1.89731,-4.184406 2.5544,-8.059219 2.84963,-16.804279 0.19747,-5.849354 0.28099,-6.543556 0.88534,-7.36 1.07475,-1.451946 2.20912,-1.825283 5.96973,-1.96472 1.892,-0.07015 3.44,-0.179515 3.44,-0.243027 0,-0.06351 -0.35206,-0.911581 -0.7824,-1.8846 l -0.78239,-1.7691245 h -3.99949 c -3.77017,0 -4.028,-0.040773 -4.4976,-0.7112019 -0.65337,-0.9328403 -0.63097,-1.937569 0.0619,-2.7737907 0.53914,-0.6507165 0.85802,-0.6788576 8.56,-0.7554509 l 8,-0.079556 0.0965,-1.673408 c 0.10973,-1.903534 0.80138,-2.64659247 2.46346,-2.64659247 1.66208,0 2.35373,0.74305847 2.46352,2.64659197 l 0.0965,1.673408 8.31085,0.16 8.31088,0.16 0.41216,0.8 c 0.42416,0.8233402 0.28889,2.0900691 -0.29879,2.7982099 -0.23468,0.2827648 -1.50617,0.4017901 -4.29219,0.4017901 h -3.95869 l -0.91449,1.9200005 -0.9145,1.92 h 5.07239 c 4.64572,0 5.1262,0.05383 5.71238,0.64 0.7656,0.765602 0.82832,2.148744 0.14186,3.128798 -0.49296,0.703819 -0.58682,0.711413 -9.04,0.731486 -5.25648,0.01248 -8.27296,0.128618 -7.84279,0.30195 0.94029,0.378842 1.38093,1.290423 1.38093,2.856729 v 1.301037 h 6.1688 c 7.11613,0 7.5912,0.138211 7.5912,2.208549 0,2.176458 -0.31219,2.271451 -7.46518,2.271451 H 556.16 v 1.92 1.92 h 5.41715 c 4.49799,0 5.50247,0.08532 5.92,0.502857 0.59271,0.592707 0.67002,2.721975 0.11885,3.273143 -0.26906,0.269072 -2.0409,0.384 -5.92,0.384 h -5.536 v 2.4 2.4 h 7.45885 c 8.53709,0 8.68659,0.03856 8.68659,2.24 0,2.346195 0.86771,2.240598 -18.36659,2.235101 -9.42637,-0.0026 -17.30983,-0.113626 -17.51882,-0.246512 -0.70259,-0.446749 -1.0696,-1.921783 -0.71209,-2.862077 0.18265,-0.480416 0.5031,-0.982211 0.71209,-1.115101 0.20899,-0.132886 3.65597,-0.243817 7.65997,-0.246512 l 7.28,-0.0049 v -2.4 -2.4 h -4.62186 c -4.41334,0 -4.64432,-0.03209 -5.12,-0.711203 -0.67945,-0.970066 -0.62534,-2.041595 0.14186,-2.808796 0.57904,-0.579048 1.06666,-0.64 5.12,-0.64 h 4.48 v -1.92 -1.92 h -3.60525 -3.60521 l -1.06138,1.774504 c -0.58378,0.975977 -1.62106,2.362847 -2.30512,3.081932 -1.09904,1.15534 -1.36339,1.283497 -2.27238,1.101695 -0.56576,-0.113152 -1.26983,-0.423977 -1.56458,-0.690721 -0.49322,-0.446373 -0.55174,-0.350524 -0.73507,1.2038 -0.49815,4.223427 -2.73002,10.421817 -3.99674,11.09974 -1.0496,0.561728 -2.13945,0.405924 -3.04755,-0.43567 z M 540.3288,23.208425 c 0.96317,-1.931367 1.7512,-3.684916 1.7512,-3.896774 0,-0.211859 0.37942,-0.683649 0.84317,-1.048423 l 0.84313,-0.663226 h -3.04396 c -2.04749,0 -3.15098,0.130945 -3.37088,0.4 -0.18148,0.222051 -0.37687,2.717875 -0.43917,5.61019 l -0.11229,5.21019 0.8888,-1.05019 c 0.48883,-0.577604 1.67683,-2.6304 2.64,-4.561767 z M 551.36,20.529598 c 0,-1.543799 0.43171,-2.273004 1.6,-2.702577 0.264,-0.09707 -1.536,-0.178734 -4,-0.181472 -2.90182,-0.0032 -4.23293,0.09454 -3.77866,0.277524 1.19344,0.48072 1.73751,1.625646 1.37434,2.892036 -0.17363,0.605367 -0.31568,1.137618 -0.31568,1.18278 0,0.04516 1.152,0.08211 2.56,0.08211 h 2.56 z m 4.75245,-8.609596 c 0.33299,-0.66 0.7056,-1.524 0.82806,-1.92 l 0.22263,-0.7200005 h -5.46157 c -3.00387,0 -5.46157,0.059186 -5.46157,0.1315251 0,0.072339 0.308,0.9363394 0.68442,1.9200004 l 0.68441,1.788475 h 3.94909 3.94909 z M 626.852,42.790396 c -0.59549,-0.40128 -1.26266,-1.08528 -1.48262,-1.52 -0.30525,-0.603284 -0.40106,-4.941636 -0.40468,-18.326285 -0.005,-19.3486087 -0.0546,-18.8554433 2.00071,-19.9786929 0.9488,-0.5185228 2.54381,-0.5730915 19.23161,-0.6579563 20.00564,-0.1017372 19.4424,-0.1533922 19.87648,1.8229282 0.20765,0.9454918 -0.22633,2.2005958 -0.9214,2.6647113 -0.19367,0.129305 -5.28916,0.237305 -11.32336,0.24 -10.89296,0.00486 -10.9688,0.00949 -10.62669,0.6487012 0.26637,0.4977344 0.20173,0.9666579 -0.28493,2.0668227 l -0.62947,1.4230228 9.7623,0.09318 c 9.23603,0.08815 9.78679,0.126662 10.21619,0.714339 0.53309,0.729603 0.59175,2.203242 0.1226,3.079875 -0.30919,0.577701 -0.72583,0.618963 -6.25005,0.618963 -4.45568,0 -5.94938,0.09888 -6.04253,0.4 -0.0681,0.22 -0.21155,1.372 -0.31888,2.56 l -0.1951,2.16 h 7.62492 c 5.50381,0 7.73172,0.106821 8.0089,0.384 0.2112,0.2112 0.384,0.980882 0.384,1.710404 0,2.296782 -0.2017,2.359895 -7.85782,2.458914 l -6.70218,0.08668 2.4,2.42545 c 2.63312,2.661027 4.45139,3.694261 8.33331,4.735401 1.29904,0.3484 2.54746,0.887261 2.77427,1.197466 0.61652,0.843113 0.49898,2.165334 -0.28057,3.156358 -0.64947,0.82568 -0.80221,0.868147 -2.43306,0.676477 -4.90467,-0.576451 -9.97747,-3.757085 -13.53321,-8.485318 l -0.81924,-1.089393 -0.84608,1.443729 c -1.3535,2.309581 -4.37587,4.86342 -7.72089,6.523961 -3.6064,1.790323 -5.56208,2.12832 -6.55712,1.133271 -0.76679,-0.766781 -0.94218,-2.957056 -0.27741,-3.46418 0.22,-0.167827 1.54195,-0.713529 2.93763,-1.212672 3.2585,-1.165323 6.13834,-3.13042 7.46237,-5.092059 0.572,-0.847451 1.04,-1.668546 1.04,-1.824655 0,-0.15611 -2.52,-0.283836 -5.6,-0.283836 -5.17334,0 -5.64877,-0.04876 -6.24,-0.64 -0.81715,-0.817137 -0.84656,-2.593882 -0.0548,-3.310404 0.50256,-0.454789 1.46909,-0.529596 6.84269,-0.529596 7.17373,0 6.63933,0.263668 6.64775,-3.28 l 0.004,-1.84 h -2.68109 -2.68109 l -1.37232,1.778784 c -1.79043,2.320725 -2.7191,3.021216 -4.00544,3.021216 -0.75708,0 -1.24025,-0.237289 -1.71683,-0.843155 -1.01158,-1.28602 -0.82403,-2.075072 0.94666,-3.98257 2.01542,-2.171138 3.55145,-4.44595 4.5943,-6.8039741 l 0.80829,-1.8277059 -4.54624,0.088702 -4.54588,0.088703 v 15.6800005 15.68 l 18.02595,0.16 c 17.37632,0.154234 18.04234,0.182387 18.48,0.781162 0.59885,0.819276 0.57751,2.420163 -0.0441,3.307635 l -0.49814,0.711203 H 646.90918 627.93466 Z M 40.32,42.965023 c -1.001043,-0.351479 -1.6,-1.170717 -1.6,-2.188445 0,-1.686448 0.282192,-2.029491 2.650669,-3.222237 3.7712,-1.899145 6.137853,-4.695539 7.620105,-9.003783 l 0.591844,-1.72023 -2.311309,-1.061593 c -2.34625,-1.077642 -6.641575,-2.408733 -7.772784,-2.408733 -0.479725,0 -0.788896,0.490461 -1.361603,2.16 -0.407524,1.188 -1.586858,3.888 -2.620746,6 -2.770854,5.660243 -5.173939,7.816672 -8.728924,7.832973 -4.04937,0.01857 -6.74217,-3.364848 -6.743491,-8.472973 -8e-4,-3.041047 0.63398,-5.13554 2.205607,-7.277676 2.075119,-2.828399 6.308203,-4.89827 10.78499,-5.273588 1.547594,-0.129745 2.274164,-0.334921 2.465872,-0.69634 C 35.90992,16.860036 37.44,10.432418 37.44,9.4837343 V 8.6545097 l -6.059939,0.2026937 c -5.354625,0.1791027 -6.155385,0.1401552 -6.88,-0.334631 C 23.823156,8.0790466 23.68,7.7364469 23.68,6.5600015 23.68,4.324958 23.9526,4.2421746 32.18153,3.978254 39.90977,3.7303916 41.090266,3.8910325 42.234995,5.3463215 43.203197,6.5771884 43.067587,9.0418882 41.758986,13.997789 41.143542,16.328572 40.64,18.298363 40.64,18.375102 c 0,0.07674 0.828,0.308286 1.84,0.514549 1.012,0.206264 3.185082,0.875393 4.829066,1.486954 1.643987,0.611561 3.043369,1.05763 3.109734,0.991264 0.06637,-0.06637 0.219754,-2.316507 0.340858,-5.000313 0.21159,-4.688985 0.25119,-4.904027 1.013424,-5.503601 1.006912,-0.792037 2.341964,-0.797152 3.311468,-0.01269 0.696378,0.56347 0.75545,0.844967 0.75545,3.6 0,1.643803 -0.10519,4.513235 -0.23376,6.376514 l -0.233757,3.38778 2.200647,1.503637 c 2.993609,2.045444 5.14687,4.381558 5.14687,5.58394 0,1.438928 -1.103306,2.616864 -2.451069,2.616864 -0.921782,0 -1.562528,-0.375146 -3.552633,-2.08 -1.335412,-1.144 -2.524087,-2.08 -2.641508,-2.08 -0.117417,0 -0.396323,0.612 -0.619792,1.36 -0.561481,1.879418 -1.315977,3.283747 -2.938819,5.469971 -2.546032,3.429904 -8.313635,7.036035 -10.196179,6.37505 z M 28.707015,33.19964 C 29.762653,32.233906 33.6,24.473854 33.6,23.304831 c 0,-0.946667 -4.588604,0.568152 -6.316461,2.085231 -2.106309,1.849363 -2.972448,5.38687 -1.850272,7.556919 0.751035,1.452343 1.868143,1.538557 3.273748,0.252659 z M 131.2,42.713656 c -3.70585,-1.220761 -5.76228,-3.912192 -5.757,-7.534684 0.005,-3.547073 1.96974,-6.11733 5.757,-7.531948 1.55169,-0.579587 6.79151,-0.795249 8.434,-0.347129 l 0.914,0.249367 -0.22651,-4.57463 c -0.21737,-4.390117 -0.19844,-4.610124 0.46923,-5.45463 0.54353,-0.687489 0.96559,-0.88 1.92928,-0.88 1.91883,0 2.56,1.040395 2.56,4.153995 0,1.357227 0.0928,3.774526 0.20614,5.371776 l 0.20614,2.904091 2.84607,1.684679 c 1.56535,0.926574 3.70458,2.489024 4.75386,3.472112 2.21703,2.077158 2.50701,3.283222 1.12233,4.667891 -1.33934,1.339344 -2.33022,1.068275 -5.31708,-1.454544 -1.45862,-1.232 -2.75152,-2.24 -2.87312,-2.24 -0.12161,0 -0.29482,0.654006 -0.38492,1.453344 -0.25985,2.305402 -1.68743,4.286365 -3.90717,5.421754 -1.7383,0.889139 -2.17717,0.970713 -5.58934,1.038908 -2.58683,0.0517 -4.13694,-0.06897 -5.14291,-0.400352 z m 7.84691,-4.81838 c 1.27368,-0.604404 2.07309,-2.128167 2.07309,-3.951556 0,-1.142764 -0.1179,-1.365664 -0.88,-1.663673 -0.484,-0.189264 -2.04114,-0.420321 -3.4603,-0.513462 -2.15757,-0.141603 -2.82529,-0.06098 -4.07569,0.492134 -2.96989,1.313725 -3.1882,4.272265 -0.40839,5.5348 1.66643,0.756864 5.25672,0.810976 6.75129,0.101757 z m 183.23175,4.943996 c -3.4386,-0.571132 -6.3186,-2.322172 -7.44237,-4.524944 -0.91493,-1.793408 -0.93542,-4.68015 -0.0474,-6.673496 1.32354,-2.970884 5.14655,-6.133373 9.81071,-8.11566 1.1703,-0.497389 2.12038,-1.101263 2.12038,-1.347721 0,-0.245597 -0.37232,-0.818868 -0.82739,-1.273936 -0.74858,-0.748578 -0.99562,-0.810033 -2.59338,-0.64513 -3.2935,0.339917 -6.93599,2.465207 -11.98162,6.990903 -2.04728,1.836311 -2.62591,2.190714 -3.57678,2.190714 -0.84435,0 -1.30395,-0.215573 -1.7976,-0.843155 -1.28345,-1.631633 -0.95983,-2.412637 2.4859,-5.99944 2.80379,-2.918589 7.73087,-9.027682 7.73087,-9.585532 0,-0.11653 -1.80947,-0.211873 -4.02104,-0.211873 -3.8577,0 -5.08537,-0.236218 -5.65406,-1.087905 -0.44281,-0.663177 -0.24508,-2.3609768 0.36234,-3.1111093 0.60238,-0.7439062 0.65351,-0.7490902 6.38015,-0.64691 l 5.7729,0.1030057 0.77617,-1.5485411 c 0.4269,-0.8516973 0.95084,-2.0880941 1.16434,-2.7475485 0.65792,-2.0321475 2.26269,-2.6720531 4.1951,-1.6727747 0.7745,0.4005152 0.9441,0.6907909 0.9441,1.6158912 0,0.6202205 -0.19776,1.5165226 -0.43946,1.9917824 -1.13577,2.233257 -1.184,2.1925597 2.27984,1.9242608 1.71578,-0.1329018 4.9616,-0.4812826 7.21293,-0.7741798 l 4.09328,-0.5325405 0.78672,0.7390646 c 1.20288,1.1300599 0.97235,3.4421922 -0.39555,3.9671052 -0.91869,0.352542 -6.94829,1.067518 -12.41776,1.472468 -3.10339,0.22977 -5.20538,0.522615 -5.33674,0.743504 -0.1192,0.200435 -0.7264,1.077222 -1.34934,1.948416 -0.62294,0.871194 -1.08787,1.628732 -1.03318,1.683417 0.0547,0.05469 0.73388,-0.129551 1.50934,-0.409413 2.05568,-0.741898 5.62848,-0.686068 7.19296,0.1124 1.53805,0.784965 2.20275,1.494539 2.84906,3.041318 0.27305,0.653559 0.58473,1.188289 0.69254,1.188289 0.10784,0 2.41978,-0.72 5.13766,-1.6 2.71786,-0.88 5.50212,-1.6 6.18717,-1.6 1.56093,0 2.55053,0.954594 2.55053,2.46034 0,1.347308 -0.84861,2.205619 -2.62314,2.65314 -2.3631,0.595962 -8.84073,2.54163 -9.86723,2.963803 l -0.97921,0.402717 -0.0652,4.108707 c -0.0618,3.893283 -0.10484,4.140759 -0.82068,4.72 -0.96476,0.780672 -2.32428,0.780685 -3.28908,3.9e-5 -0.68756,-0.55632 -0.76535,-0.90145 -0.86544,-3.840002 -0.0605,-1.775809 -0.18341,-3.228744 -0.2732,-3.228744 -0.76765,0 -4.84611,2.621561 -6.00358,3.858991 -2.53494,2.710036 -1.90002,4.895691 1.73196,5.96219 2.32676,0.683232 9.62948,0.652595 15.18615,-0.06371 4.72102,-0.608583 5.43174,-0.412659 5.8096,1.601523 0.28121,1.499018 -0.45856,2.601434 -2.02007,3.010342 -3.49113,0.914212 -15.21916,1.298154 -19.2422,0.629936 z M 462.4,42.555896 c -2.66195,-0.552902 -5.49053,-2.237548 -6.64,-3.954652 -0.88208,-1.317674 -1.04,-1.842032 -1.04,-3.453296 0,-2.835072 1.17123,-4.788936 3.68,-6.139088 1.0665,-0.573953 1.81379,-0.688817 4.48,-0.688612 2.85002,2.2e-4 3.37498,0.09334 4.8,0.851427 1.43971,0.765915 2.7768,1.95941 3.97782,3.550685 0.23344,0.309296 0.73783,1.427844 1.12087,2.485664 l 0.69641,1.923309 1.97623,-0.987536 c 6.02867,-3.012566 6.46019,-9.57541 0.81197,-12.34886 -1.75146,-0.860025 -2.10336,-0.914525 -5.8633,-0.908097 -2.97088,0.0051 -4.53514,0.163294 -6.08,0.614964 -3.1311,0.915437 -6.74125,2.499839 -10.20896,4.480462 -1.71184,0.977755 -3.47974,1.777736 -3.92861,1.777736 -1.36397,0 -2.5032,-1.141821 -2.49753,-2.503226 0.003,-0.647226 0.11068,-1.340088 0.24,-1.539694 0.12931,-0.199605 2.61715,-1.941996 5.52857,-3.871978 4.63725,-3.074031 13.67463,-9.715718 16.46653,-12.1014311 l 0.96,-0.8203338 -3.52,0.187455 c -1.936,0.1031005 -5.78109,0.2193495 -8.54461,0.2583312 -5.60477,0.07906 -5.88755,-0.013363 -6.21504,-2.0313852 -0.13424,-0.8272288 -0.008,-1.314889 0.51399,-1.9778388 0.67801,-0.8619622 0.76176,-0.879862 4.10889,-0.8780448 1.87923,0.00102 7.05184,-0.1601523 11.49469,-0.3581619 9.09885,-0.4055181 9.28659,-0.3716726 10.00454,1.8037911 0.29696,0.8998134 0.29239,1.3606928 -0.0211,2.1174464 -0.47443,1.1453859 -4.18976,4.4860149 -8.72531,7.8453059 -1.79085,1.326403 -3.37523,2.524092 -3.52089,2.661531 -0.14567,0.137439 0.50233,0.107519 1.44,-0.06649 2.60537,-0.483501 7.7664,-0.11802 9.94137,0.704004 3.73207,1.410523 6.49095,4.111073 7.31328,7.158692 0.57245,2.121504 0.21501,6.483271 -0.68608,8.372026 -1.58243,3.316992 -5.45581,6.065059 -10.38374,7.367059 -2.27856,0.602016 -9.62003,0.896704 -11.68,0.468835 z m 5.76,-4.966172 c 0,-1.808887 -2.36285,-4.443671 -4.31315,-4.809552 -2.31994,-0.435223 -4.32685,0.55174 -4.32685,2.127878 0,0.969235 1.3,2.19809 2.82026,2.665885 2.13033,0.655529 5.81974,0.665539 5.81974,0.01578 z M 68.256541,42.079605 c -1.404979,-0.984086 -1.258535,-1.848384 1.687171,-9.957491 1.526835,-4.203162 4.038019,-10.954112 5.58041,-15.002112 6.043673,-15.8616091 5.52814,-14.8800005 7.814841,-14.8800005 1.426899,0 2.421037,0.9263175 2.421037,2.2558742 0,0.5367309 -1.212086,3.9567309 -2.693526,7.6000003 -1.48144,3.643269 -2.994298,7.387634 -3.361908,8.320811 l -0.66838,1.696686 1.369116,-0.941977 c 2.138336,-1.471214 3.733604,-2.017499 5.994698,-2.05283 2.367728,-0.037 3.629888,0.479046 4.91913,2.011223 1.211603,1.439907 1.727712,3.693095 2.080147,9.081316 0.343664,5.254129 0.682083,6.169262 2.456941,6.643931 3.149779,0.84238 5.670172,-2.083028 7.019022,-8.14695 0.30487,-1.370553 0.76473,-2.702337 1.02191,-2.959519 1.20769,-1.207695 3.60576,-0.774934 4.24398,0.765881 0.27036,0.65271 0.24525,1.435372 -0.10434,3.252548 -1.21658,6.32371 -4.20433,10.752436 -8.16454,12.102251 -1.70585,0.58143 -5.734634,0.455561 -7.234996,-0.226039 -1.602038,-0.727792 -3.212316,-2.52999 -3.6763,-4.11446 -0.194679,-0.66481 -0.500679,-3.340272 -0.68,-5.945471 -0.507872,-7.378451 -1.077108,-8.256157 -4.628487,-7.136683 -3.645609,1.149177 -6.802406,5.429775 -10.054179,13.633408 -0.732515,1.848 -1.558112,3.612 -1.834662,3.92 -0.624624,0.695658 -2.564676,0.739693 -3.507085,0.0796 z m 358.854239,0.02592 c -2.84627,-0.765494 -4.2376,-2.875974 -4.57267,-6.936281 -0.38688,-4.687695 -0.99977,-5.442328 -3.76694,-4.637894 -2.59159,0.753392 -5.16858,2.61934 -9.88551,7.157846 -4.76812,4.587792 -5.73091,5.118339 -7.244,3.991958 -1.01078,-0.752422 -1.48643,-1.941085 -1.21289,-3.030931 0.20013,-0.797386 5.77337,-6.109223 16.53123,-15.755852 5.09373,-4.567579 5.97987,-5.467166 5.06675,-5.143602 -0.84576,0.299697 -11.45693,1.129233 -14.44467,1.129233 -2.9199,0 -3.08509,-0.03745 -3.71885,-0.843155 -0.87801,-1.116201 -0.84893,-2.520253 0.0713,-3.440456 0.68592,-0.685913 1.08774,-0.749439 6.07232,-0.959949 2.93581,-0.123985 7.89728,-0.433965 11.0255,-0.688845 7.87207,-0.641398 8.2769,-0.627445 9.22221,0.317859 1.01072,1.010735 1.06912,2.927589 0.12573,4.126921 -0.36285,0.461276 -2.66736,2.568696 -5.12119,4.683155 l -4.46147,3.84447 1.36119,5.12e-4 c 1.77814,6.4e-4 3.4287,0.85848 4.19049,2.177898 0.37373,0.647268 0.76775,2.338065 1.01434,4.352744 0.45798,3.741437 0.79286,4.575475 1.95414,4.866938 1.3057,0.327708 4.27923,-0.06825 6.36221,-0.847188 2.91498,-1.09008 4.10237,-1.157734 4.91981,-0.280326 0.72573,0.779005 0.90739,2.46696 0.37296,3.465574 -1.06903,1.997498 -9.80359,3.54088 -13.86199,2.449396 z M 181.64316,41.256776 C 180.96029,40.719637 180.8,40.325605 180.8,39.184152 c 0,-1.722012 0.62456,-2.226454 3.38485,-2.733868 1.04233,-0.191607 3.04694,-0.791572 4.45468,-1.333258 2.03194,-0.781869 2.92818,-1.35353 4.34796,-2.773312 2.63716,-2.637163 3.33251,-4.580024 3.33251,-9.311306 0,-3.519434 -0.0478,-3.784603 -1.04772,-5.814942 -1.79953,-3.653887 -5.26552,-6.201082 -9.32008,-6.849433 l -1.24119,-0.198473 -0.21254,2.035221 c -0.85363,8.174016 -2.03467,13.93096 -3.72286,18.147004 -1.63249,4.076956 -3.51914,6.586307 -5.87378,7.812492 -1.85403,0.965488 -5.59859,0.974791 -7.38183,0.01834 -4.26224,-2.28607 -6.50792,-8.360183 -5.62015,-15.201409 0.91811,-7.075172 4.45763,-12.229255 10.42015,-15.1733465 7.93927,-3.9201434 18.27653,-2.9568298 24.05889,2.2420115 2.05048,1.843551 3.44779,4.00613 4.51372,6.985738 0.72837,2.036031 0.83103,2.820635 0.82742,6.324395 -0.003,3.325457 -0.12623,4.348703 -0.72831,6.067786 -1.01513,2.898496 -2.1339,4.680691 -4.24004,6.754387 -2.31297,2.277337 -5.52602,3.965245 -9.43633,4.957177 -3.75396,0.952269 -4.58889,0.969556 -5.67219,0.117424 z m -8.2852,-8.684102 c 2.30355,-2.146748 4.99398,-10.842579 5.672,-18.332672 0.11153,-1.232 0.27016,-2.564 0.3525,-2.96 0.12698,-0.610576 0.0151,-0.718846 -0.73636,-0.712405 -0.48736,0.0042 -1.70247,0.343375 -2.70025,0.753772 -5.24629,2.157842 -8.38266,6.668851 -9.0647,13.037633 -0.39171,3.657689 0.87302,7.755016 2.71423,8.793278 1.06527,0.600711 2.77939,0.33666 3.76258,-0.579606 z m -58.18257,2.971942 c -0.51447,-0.51446 -0.9375,-1.19846 -0.94009,-1.52 -0.003,-0.321536 1.29723,-3.176614 2.88847,-6.344614 1.59125,-3.168 3.45631,-7.272 4.14459,-9.12 l 1.25142,-3.36 -3.68675,-0.16 C 114.67604,14.859594 114.24,14.61546 114.24,12.468437 c 0,-2.069818 0.68091,-2.372183 5.6138,-2.4928803 l 4.26867,-0.1044448 0.87062,-3.6845536 c 0.47884,-2.0265046 1.07357,-3.8875045 1.32162,-4.1355553 0.24996,-0.2499541 1.07238,-0.4510015 1.84492,-0.4510015 1.12746,0 1.52169,0.1624333 2.06232,0.8497287 0.7239,0.9202934 0.70481,1.4212764 -0.19147,5.0256707 -0.25649,1.0314697 -0.42228,1.9069856 -0.36841,1.945591 0.0539,0.038605 1.57567,-0.070069 3.3818,-0.2414979 2.92797,-0.2779098 3.34968,-0.2521207 3.89121,0.23796 1.23672,1.119214 1.07913,3.287091 -0.2923,4.021058 -0.36731,0.196582 -2.42513,0.533022 -4.57292,0.747645 l -3.90509,0.390223 -1.50921,4.254085 c -2.5854,7.287542 -6.51752,15.619748 -8.04109,17.039169 -0.97135,0.904957 -2.3383,0.775773 -3.43908,-0.325018 z M 0.96,26.240002 C 0.3447113,25.624713 0.32,25.173335 0.32,14.549724 0.32,2.3806124 0.40656566,1.7481072 2.1988999,0.82125519 2.9595067,0.42793014 4.2633853,0.32000153 8.254513,0.32000153 c 5.811975,0 6.145487,0.13382928 6.145487,2.46601467 0,1.9330429 -0.456475,2.1492627 -4.9274266,2.3339853 L 5.6,5.2800015 5.44,15.626137 c -0.15112,9.771925 -0.1944746,10.371325 -0.7811616,10.8 C 3.7321574,27.103236 1.7220818,27.002084 0.96,26.240002 Z m 147.52,-9.748571 c -1.496,-0.923873 -3.8,-2.144335 -5.12,-2.712136 -3.70086,-1.591934 -4.4326,-2.995921 -2.54516,-4.8833693 1.28938,-1.2893764 2.22572,-1.1303866 6.84172,1.1617143 6.37513,3.165613 7.51859,4.190083 7.05132,6.317556 -0.2488,1.132787 -1.2786,1.875163 -2.53908,1.830406 -0.56369,-0.02002 -2.1062,-0.736815 -3.6888,-1.714171 z M 426.24,9.6962194 c -7.54467,-0.5866473 -17.18915,-2.3014253 -17.82355,-3.1690038 -0.70247,-0.9606771 -0.51111,-2.6216336 0.40787,-3.5406309 0.92499,-0.9249729 0.55747,-0.9351406 6.99638,0.1935598 2.10141,0.3683594 6.13341,0.8992349 8.96,1.1797236 6.07152,0.6024854 6.5793,0.8204582 6.5793,2.8242848 0,1.1414521 -0.16029,1.5354854 -0.84317,2.072623 -0.83078,0.6534989 -1.12937,0.6841792 -4.27683,0.4394435 z"
     style="fill:#000000;stroke-width:0.31999999" />
</svg>
